<?xml version="1.0" encoding="UTF-8"?>
<svg xmlns="http://www.w3.org/2000/svg" xmlns:xlink="http://www.w3.org/1999/xlink" width="32px" height="26px" viewBox="0 0 32 26" version="1.1">
<g id="surface1">
<path style=" stroke:none;fill-rule:nonzero;fill:rgb(0%,0%,0%);fill-opacity:1;" d="M 10.398438 17.875 C 16.144531 17.875 20.800781 13.875 20.800781 8.9375 C 20.800781 4 16.144531 0 10.398438 0 C 4.65625 0 0 4 0 8.9375 C 0 10.898438 0.734375 12.710938 1.980469 14.1875 C 1.804688 14.664062 1.546875 15.085938 1.269531 15.441406 C 1.03125 15.757812 0.785156 16 0.605469 16.167969 C 0.515625 16.25 0.441406 16.316406 0.390625 16.355469 C 0.363281 16.375 0.34375 16.390625 0.335938 16.398438 L 0.324219 16.40625 C 0.0507812 16.617188 -0.0703125 16.980469 0.0390625 17.3125 C 0.148438 17.640625 0.453125 17.875 0.800781 17.875 C 1.890625 17.875 2.988281 17.589844 3.90625 17.242188 C 4.363281 17.0625 4.796875 16.863281 5.171875 16.660156 C 6.703125 17.433594 8.488281 17.875 10.398438 17.875 Z M 22.398438 8.9375 C 22.398438 14.640625 17.445312 18.9375 11.574219 19.449219 C 12.789062 23.226562 16.820312 26 21.601562 26 C 23.511719 26 25.296875 25.558594 26.835938 24.785156 C 27.210938 24.988281 27.636719 25.1875 28.09375 25.367188 C 29.011719 25.714844 30.109375 26 31.199219 26 C 31.546875 26 31.855469 25.773438 31.960938 25.4375 C 32.066406 25.101562 31.949219 24.734375 31.671875 24.527344 L 31.660156 24.515625 C 31.648438 24.507812 31.628906 24.496094 31.605469 24.476562 C 31.554688 24.4375 31.480469 24.375 31.390625 24.289062 C 31.210938 24.121094 30.964844 23.878906 30.726562 23.5625 C 30.449219 23.207031 30.191406 22.78125 30.015625 22.308594 C 31.261719 20.835938 31.996094 19.023438 31.996094 17.058594 C 31.996094 12.34375 27.75 8.480469 22.363281 8.144531 C 22.386719 8.402344 22.394531 8.667969 22.394531 8.933594 Z M 22.398438 8.9375 "/>
</g>
</svg>
