<?xml version="1.0" encoding="UTF-8"?>
<svg xmlns="http://www.w3.org/2000/svg" xmlns:xlink="http://www.w3.org/1999/xlink" width="430px" height="518px" viewBox="0 0 430 517" version="1.1">
<g id="surface1">
<path style=" stroke:none;fill-rule:nonzero;fill:rgb(100%,72.156863%,72.156863%);fill-opacity:1;" d="M 3.074219 247.289062 C 6.273438 252.617188 11.671875 256.261719 17.820312 257.238281 C 23.96875 258.210938 30.234375 256.417969 34.929688 252.339844 L 99.773438 289.460938 L 97.355469 250.765625 L 36.148438 221.445312 C 28.597656 213.859375 16.550781 213.109375 8.113281 219.703125 C -0.328125 226.296875 -2.492188 238.144531 3.074219 247.289062 Z M 3.074219 247.289062 "/>
<path style=" stroke:none;fill-rule:nonzero;fill:rgb(18.431373%,18.039216%,25.490196%);fill-opacity:1;" d="M 190.800781 395.996094 C 171.566406 422.867188 172.253906 467.824219 177.621094 517.027344 L 268.5625 517.027344 L 272.519531 507.820312 L 277.789062 517.027344 L 363.460938 517.027344 C 363.460938 517.027344 356.871094 392.050781 345.007812 388.101562 C 333.144531 384.15625 190.800781 395.996094 190.800781 395.996094 Z M 190.800781 395.996094 "/>
<path style=" stroke:none;fill-rule:nonzero;fill:rgb(100%,72.156863%,72.156863%);fill-opacity:1;" d="M 314.695312 69.195312 C 314.695312 94.628906 294.039062 115.242188 268.5625 115.242188 C 243.085938 115.242188 222.433594 94.628906 222.433594 69.195312 C 222.433594 43.765625 243.085938 23.152344 268.5625 23.152344 C 294.039062 23.152344 314.695312 43.765625 314.695312 69.195312 Z M 314.695312 69.195312 "/>
<path style=" stroke:none;fill-rule:nonzero;fill:rgb(24.705882%,23.921569%,33.72549%);fill-opacity:1;" d="M 301.90625 127.1875 L 310.925781 144.445312 L 373.320312 172.210938 L 356.917969 330.640625 L 350.015625 347.046875 L 353.746094 361.292969 L 344.753906 371.808594 C 353.78125 379.957031 354.925781 388.492188 350.015625 397.320312 L 321.285156 403.890625 C 321.285156 403.890625 161.519531 418.070312 174.984375 393.363281 C 189.695312 366.371094 193.441406 286.652344 160.964844 244.050781 C 133.394531 207.886719 154.5625 160.953125 154.5625 160.953125 L 219.964844 141.445312 L 244.019531 127.1875 Z M 301.90625 127.1875 "/>
<path style=" stroke:none;fill-rule:nonzero;fill:rgb(18.431373%,18.039216%,25.490196%);fill-opacity:1;" d="M 289.042969 1.75 C 289.488281 0.8125 290.457031 0.238281 291.492188 0.296875 C 270.371094 -0.960938 248.128906 1.496094 230.460938 13.109375 C 226.179688 15.925781 222.144531 19.28125 217.484375 21.324219 C 217.039062 21.523438 216.730469 21.945312 216.671875 22.429688 C 216.613281 22.914062 216.8125 23.398438 217.199219 23.695312 L 217.710938 24.097656 C 218.121094 24.417969 218.320312 24.941406 218.226562 25.457031 C 218.128906 25.96875 217.753906 26.386719 217.253906 26.539062 C 216.734375 26.699219 216.351562 27.144531 216.273438 27.683594 C 216.199219 28.222656 216.445312 28.757812 216.902344 29.054688 L 220.824219 31.582031 C 221.222656 31.835938 221.46875 32.277344 221.472656 32.753906 C 221.472656 33.226562 221.234375 33.671875 220.835938 33.929688 C 220.503906 34.132812 220.15625 34.308594 219.792969 34.457031 C 219.335938 34.628906 219 35.027344 218.910156 35.503906 C 218.820312 35.984375 218.984375 36.476562 219.351562 36.804688 C 221.046875 38.3125 222.351562 40.210938 223.144531 42.339844 C 224.449219 45.730469 224.683594 49.421875 224.90625 53.050781 C 226.253906 47.816406 231.976562 44.738281 237.382812 44.421875 C 242.789062 44.109375 248.058594 45.890625 253.320312 47.171875 C 264.777344 49.949219 276.675781 50.40625 288.3125 48.515625 C 284.359375 56.429688 287.691406 65.871094 291.046875 74.054688 L 301.90625 69.410156 C 316.816406 61.007812 306.429688 96.550781 300.855469 101.429688 C 312.238281 105.367188 342.03125 61.648438 332.445312 45.066406 C 327.460938 36.4375 331 25.3125 321.199219 17.132812 C 316.394531 12.082031 306.800781 14.328125 301.90625 10.132812 C 299.976562 8.480469 302.914062 4.0625 300.265625 3.101562 C 299.386719 2.78125 289.1875 1.425781 289.042969 1.75 Z M 289.042969 1.75 "/>
<path style=" stroke:none;fill-rule:nonzero;fill:rgb(24.705882%,23.921569%,33.72549%);fill-opacity:1;" d="M 210.90625 145.902344 C 202.441406 183.414062 180.730469 270.996094 158.703125 289.3125 C 157.308594 290.628906 155.632812 291.617188 153.804688 292.199219 C 76.378906 311.027344 51.574219 263.003906 51.574219 263.003906 C 51.574219 263.003906 72.320312 252.910156 72.847656 233.183594 L 114.691406 246.144531 L 151.164062 164.210938 L 156.53125 159.214844 L 156.5625 159.183594 Z M 210.90625 145.902344 "/>
<path style=" stroke:none;fill-rule:nonzero;fill:rgb(100%,72.156863%,72.156863%);fill-opacity:1;" d="M 375.984375 492.296875 C 380.472656 487.988281 382.816406 481.917969 382.390625 475.71875 C 381.964844 469.519531 378.808594 463.828125 373.773438 460.175781 L 395.480469 388.777344 L 358.238281 399.804688 L 343.335938 465.914062 C 337.621094 474.964844 339.59375 486.847656 347.921875 493.578125 C 356.25 500.308594 368.304688 499.757812 375.984375 492.296875 Z M 375.984375 492.296875 "/>
<path style=" stroke:none;fill-rule:nonzero;fill:rgb(24.705882%,23.921569%,33.72549%);fill-opacity:1;" d="M 356.117188 168.214844 L 373.320312 172.210938 C 373.320312 172.210938 444.425781 310.296875 427.289062 336.609375 C 410.15625 362.921875 389.164062 450.03125 389.164062 450.03125 C 389.164062 450.03125 358.121094 443.871094 346.257812 428.085938 L 367.980469 324.769531 L 345.574219 237.941406 Z M 356.117188 168.214844 "/>
<path style=" stroke:none;fill-rule:nonzero;fill:rgb(90.196078%,90.196078%,90.196078%);fill-opacity:1;" d="M 29.753906 373.273438 L 30.371094 150.875 C 30.410156 141.5 38.039062 133.925781 47.429688 133.941406 L 215.699219 134.40625 C 225.089844 134.445312 232.675781 142.0625 232.660156 151.433594 L 232.042969 373.832031 C 232.007812 383.203125 224.375 390.777344 214.988281 390.761719 L 46.714844 390.296875 C 37.328125 390.261719 29.738281 382.644531 29.753906 373.273438 Z M 29.753906 373.273438 "/>
<path style=" stroke:none;fill-rule:nonzero;fill:rgb(100%,100%,100%);fill-opacity:1;" d="M 42.847656 306.132812 L 43.246094 163.15625 C 43.277344 154.378906 50.425781 147.285156 59.21875 147.300781 L 203.832031 147.699219 C 212.628906 147.734375 219.734375 154.867188 219.71875 163.644531 L 219.171875 361.550781 C 219.136719 370.328125 211.988281 377.421875 203.195312 377.40625 L 113.609375 377.15625 C 74.4375 377.003906 42.785156 345.234375 42.847656 306.132812 Z M 42.847656 306.132812 "/>
<path style=" stroke:none;fill-rule:nonzero;fill:rgb(42.352941%,38.823529%,100%);fill-opacity:1;" d="M 187.261719 210.105469 L 74.5 210.105469 C 70.765625 210.105469 67.734375 207.082031 67.734375 203.351562 C 67.734375 199.621094 70.765625 196.597656 74.5 196.597656 L 187.261719 196.597656 C 191 196.597656 194.027344 199.621094 194.027344 203.351562 C 194.027344 207.082031 191 210.105469 187.261719 210.105469 Z M 187.261719 210.105469 "/>
<path style=" stroke:none;fill-rule:nonzero;fill:rgb(42.352941%,38.823529%,100%);fill-opacity:1;" d="M 99.308594 178.964844 L 74.5 178.964844 C 70.765625 178.964844 67.734375 175.941406 67.734375 172.210938 C 67.734375 168.480469 70.765625 165.457031 74.5 165.457031 L 99.308594 165.457031 C 103.046875 165.457031 106.074219 168.480469 106.074219 172.210938 C 106.074219 175.941406 103.046875 178.964844 99.308594 178.964844 Z M 99.308594 178.964844 "/>
<path style=" stroke:none;fill-rule:nonzero;fill:rgb(42.352941%,38.823529%,100%);fill-opacity:1;" d="M 187.261719 241.242188 L 74.5 241.242188 C 70.765625 241.242188 67.734375 238.21875 67.734375 234.492188 C 67.734375 230.761719 70.765625 227.738281 74.5 227.738281 L 187.261719 227.738281 C 191 227.738281 194.027344 230.761719 194.027344 234.492188 C 194.027344 238.21875 191 241.242188 187.261719 241.242188 Z M 187.261719 241.242188 "/>
<path style=" stroke:none;fill-rule:nonzero;fill:rgb(42.352941%,38.823529%,100%);fill-opacity:1;" d="M 187.261719 272.382812 L 74.5 272.382812 C 70.765625 272.382812 67.734375 269.359375 67.734375 265.628906 C 67.734375 261.902344 70.765625 258.878906 74.5 258.878906 L 187.261719 258.878906 C 191 258.878906 194.027344 261.902344 194.027344 265.628906 C 194.027344 269.359375 191 272.382812 187.261719 272.382812 Z M 187.261719 272.382812 "/>
<path style=" stroke:none;fill-rule:nonzero;fill:rgb(42.352941%,38.823529%,100%);fill-opacity:1;" d="M 205.058594 327.566406 C 205.058594 342.40625 193.007812 354.4375 178.140625 354.4375 C 163.269531 354.4375 151.21875 342.40625 151.21875 327.566406 C 151.21875 312.726562 163.269531 300.695312 178.140625 300.695312 C 193.007812 300.695312 205.058594 312.726562 205.058594 327.566406 Z M 205.058594 327.566406 "/>
<path style=" stroke:none;fill-rule:nonzero;fill:rgb(100%,100%,100%);fill-opacity:1;" d="M 174.464844 341.550781 C 173.523438 341.550781 172.636719 341.109375 172.070312 340.355469 L 164.726562 330.578125 C 164.082031 329.726562 163.945312 328.59375 164.367188 327.609375 C 164.785156 326.628906 165.699219 325.945312 166.761719 325.816406 C 167.828125 325.6875 168.875 326.136719 169.519531 326.992188 L 174.324219 333.386719 L 186.664062 314.910156 C 187.257812 314.019531 188.28125 313.511719 189.351562 313.578125 C 190.421875 313.644531 191.371094 314.277344 191.847656 315.238281 C 192.320312 316.199219 192.246094 317.339844 191.648438 318.226562 L 176.957031 340.21875 C 176.417969 341.027344 175.519531 341.523438 174.550781 341.550781 C 174.523438 341.550781 174.496094 341.550781 174.464844 341.550781 Z M 174.464844 341.550781 "/>
<path style=" stroke:none;fill-rule:nonzero;fill:rgb(94.901961%,94.901961%,94.901961%);fill-opacity:1;" d="M 133.511719 69.410156 C 133.511719 76.457031 127.792969 82.167969 120.734375 82.167969 C 113.675781 82.167969 107.953125 76.457031 107.953125 69.410156 C 107.953125 62.367188 113.675781 56.65625 120.734375 56.65625 C 127.792969 56.65625 133.511719 62.367188 133.511719 69.410156 Z M 133.511719 69.410156 "/>
<path style=" stroke:none;fill-rule:nonzero;fill:rgb(94.901961%,94.901961%,94.901961%);fill-opacity:1;" d="M 86.90625 436.339844 C 86.90625 443.382812 81.183594 449.09375 74.125 449.09375 C 67.066406 449.09375 61.34375 443.382812 61.34375 436.339844 C 61.34375 429.292969 67.066406 423.582031 74.125 423.582031 C 81.183594 423.582031 86.90625 429.292969 86.90625 436.339844 Z M 86.90625 436.339844 "/>
<path style=" stroke:none;fill-rule:nonzero;fill:rgb(94.901961%,94.901961%,94.901961%);fill-opacity:1;" d="M 380.839844 118.933594 C 380.839844 125.980469 375.117188 131.691406 368.058594 131.691406 C 361 131.691406 355.277344 125.980469 355.277344 118.933594 C 355.277344 111.890625 361 106.179688 368.058594 106.179688 C 375.117188 106.179688 380.839844 111.890625 380.839844 118.933594 Z M 380.839844 118.933594 "/>
</g>
</svg>
