<?xml version="1.0" encoding="UTF-8"?>
<svg xmlns="http://www.w3.org/2000/svg" xmlns:xlink="http://www.w3.org/1999/xlink" width="32px" height="26px" viewBox="0 0 32 26" version="1.1">
<g id="surface1">
<path style=" stroke:none;fill-rule:nonzero;fill:rgb(0%,0%,0%);fill-opacity:1;" d="M 9.199219 4.46875 C 9.199219 6.039062 7.945312 7.3125 6.398438 7.3125 C 4.855469 7.3125 3.601562 6.039062 3.601562 4.46875 C 3.601562 2.898438 4.855469 1.625 6.398438 1.625 C 7.945312 1.625 9.199219 2.898438 9.199219 4.46875 Z M 3.199219 12.476562 C 2.699219 13.046875 2.398438 13.800781 2.398438 14.625 C 2.398438 15.449219 2.699219 16.203125 3.199219 16.773438 Z M 10.421875 9.972656 C 8.933594 11.308594 8 13.265625 8 15.4375 C 8 17.179688 8.601562 18.777344 9.601562 20.03125 L 9.601562 21.125 C 9.601562 22.023438 8.886719 22.75 8 22.75 L 4.800781 22.75 C 3.914062 22.75 3.199219 22.023438 3.199219 21.125 L 3.199219 19.765625 C 1.308594 18.851562 0 16.894531 0 14.625 C 0 11.480469 2.503906 8.9375 5.601562 8.9375 L 7.199219 8.9375 C 8.398438 8.9375 9.511719 9.320312 10.421875 9.96875 Z M 22.398438 21.125 L 22.398438 20.03125 C 23.398438 18.777344 24 17.179688 24 15.4375 C 24 13.265625 23.066406 11.308594 21.578125 9.96875 C 22.488281 9.320312 23.601562 8.9375 24.800781 8.9375 L 26.398438 8.9375 C 29.496094 8.9375 32 11.480469 32 14.625 C 32 16.894531 30.691406 18.851562 28.800781 19.765625 L 28.800781 21.125 C 28.800781 22.023438 28.085938 22.75 27.199219 22.75 L 24 22.75 C 23.113281 22.75 22.398438 22.023438 22.398438 21.125 Z M 28.398438 4.46875 C 28.398438 6.039062 27.144531 7.3125 25.601562 7.3125 C 24.054688 7.3125 22.800781 6.039062 22.800781 4.46875 C 22.800781 2.898438 24.054688 1.625 25.601562 1.625 C 27.144531 1.625 28.398438 2.898438 28.398438 4.46875 Z M 28.800781 12.476562 L 28.800781 16.777344 C 29.300781 16.203125 29.601562 15.453125 29.601562 14.628906 C 29.601562 13.808594 29.300781 13.050781 28.800781 12.480469 Z M 16 8.125 C 14.234375 8.125 12.800781 6.667969 12.800781 4.875 C 12.800781 3.082031 14.234375 1.625 16 1.625 C 17.765625 1.625 19.199219 3.082031 19.199219 4.875 C 19.199219 6.667969 17.765625 8.125 16 8.125 Z M 12 15.4375 C 12 16.261719 12.300781 17.011719 12.800781 17.585938 L 12.800781 13.289062 C 12.300781 13.863281 12 14.613281 12 15.4375 Z M 19.199219 13.289062 L 19.199219 17.589844 C 19.699219 17.015625 20 16.265625 20 15.441406 C 20 14.621094 19.699219 13.863281 19.199219 13.292969 Z M 22.398438 15.4375 C 22.398438 17.707031 21.089844 19.664062 19.199219 20.578125 L 19.199219 22.75 C 19.199219 23.648438 18.484375 24.375 17.601562 24.375 L 14.398438 24.375 C 13.515625 24.375 12.800781 23.648438 12.800781 22.75 L 12.800781 20.578125 C 10.910156 19.664062 9.601562 17.707031 9.601562 15.4375 C 9.601562 12.292969 12.105469 9.75 15.199219 9.75 L 16.800781 9.75 C 19.894531 9.75 22.398438 12.292969 22.398438 15.4375 Z M 22.398438 15.4375 "/>
</g>
</svg>
