<?xml version="1.0" encoding="UTF-8"?>
<svg xmlns="http://www.w3.org/2000/svg" xmlns:xlink="http://www.w3.org/1999/xlink" width="400px" height="389px" viewBox="0 0 399 389" version="1.1">
<defs>
<filter id="alpha" filterUnits="objectBoundingBox" x="0%" y="0%" width="100%" height="100%">
  <feColorMatrix type="matrix" in="SourceGraphic" values="0 0 0 0 1 0 0 0 0 1 0 0 0 0 1 0 0 0 1 0"/>
</filter>
<mask id="mask0">
  <g filter="url(#alpha)">
<rect x="0" y="0" width="399" height="389" style="fill:rgb(0%,0%,0%);fill-opacity:0.741176;stroke:none;"/>
  </g>
</mask>
<clipPath id="clip1">
  <rect x="0" y="0" width="399" height="389"/>
</clipPath>
<g id="surface5" clip-path="url(#clip1)">
<path style=" stroke:none;fill-rule:nonzero;fill:rgb(24.705882%,23.921569%,33.72549%);fill-opacity:1;" d="M 101.808594 176.464844 C 101.808594 184.871094 95.011719 191.683594 86.625 191.683594 C 78.238281 191.683594 71.441406 184.871094 71.441406 176.464844 C 71.441406 168.0625 78.238281 161.246094 86.625 161.246094 C 95.011719 161.246094 101.808594 168.0625 101.808594 176.464844 Z M 101.808594 176.464844 "/>
</g>
<mask id="mask1">
  <g filter="url(#alpha)">
<rect x="0" y="0" width="399" height="389" style="fill:rgb(0%,0%,0%);fill-opacity:0.741176;stroke:none;"/>
  </g>
</mask>
<clipPath id="clip2">
  <rect x="0" y="0" width="399" height="389"/>
</clipPath>
<g id="surface8" clip-path="url(#clip2)">
<path style=" stroke:none;fill-rule:nonzero;fill:rgb(42.352941%,38.823529%,100%);fill-opacity:1;" d="M 116.992188 176.464844 C 116.992188 184.871094 110.195312 191.683594 101.808594 191.683594 C 93.421875 191.683594 86.625 184.871094 86.625 176.464844 C 86.625 168.0625 93.421875 161.246094 101.808594 161.246094 C 110.195312 161.246094 116.992188 168.0625 116.992188 176.464844 Z M 116.992188 176.464844 "/>
</g>
<mask id="mask2">
  <g filter="url(#alpha)">
<rect x="0" y="0" width="399" height="389" style="fill:rgb(0%,0%,0%);fill-opacity:0.741176;stroke:none;"/>
  </g>
</mask>
<clipPath id="clip3">
  <rect x="0" y="0" width="399" height="389"/>
</clipPath>
<g id="surface11" clip-path="url(#clip3)">
<path style=" stroke:none;fill-rule:nonzero;fill:rgb(100%,39.607843%,51.764706%);fill-opacity:1;" d="M 109.527344 164.335938 C 109.527344 172.742188 102.730469 179.554688 94.34375 179.554688 C 85.960938 179.554688 79.164062 172.742188 79.164062 164.335938 C 79.164062 155.933594 85.960938 149.117188 94.34375 149.117188 C 102.730469 149.117188 109.527344 155.933594 109.527344 164.335938 Z M 109.527344 164.335938 "/>
</g>
<mask id="mask3">
  <g filter="url(#alpha)">
<rect x="0" y="0" width="399" height="389" style="fill:rgb(0%,0%,0%);fill-opacity:0.211765;stroke:none;"/>
  </g>
</mask>
<clipPath id="clip4">
  <rect x="0" y="0" width="399" height="389"/>
</clipPath>
<g id="surface14" clip-path="url(#clip4)">
<path style=" stroke:none;fill-rule:nonzero;fill:rgb(0%,0%,0%);fill-opacity:1;" d="M 349.460938 84.691406 L 349.207031 84.691406 C 349.992188 84.691406 350.765625 84.875 351.46875 85.226562 L 350.320312 85.226562 C 347.746094 85.230469 345.660156 87.320312 345.660156 89.902344 L 345.660156 102.28125 C 345.660156 104.863281 347.746094 106.953125 350.320312 106.957031 L 351.054688 106.957031 C 350.464844 107.1875 349.839844 107.304688 349.207031 107.304688 L 349.460938 107.304688 C 352.277344 107.304688 354.5625 105.015625 354.566406 102.191406 L 354.566406 89.808594 C 354.5625 86.984375 352.277344 84.695312 349.460938 84.691406 Z M 349.460938 84.691406 "/>
</g>
<mask id="mask4">
  <g filter="url(#alpha)">
<rect x="0" y="0" width="399" height="389" style="fill:rgb(0%,0%,0%);fill-opacity:0.211765;stroke:none;"/>
  </g>
</mask>
<clipPath id="clip5">
  <rect x="0" y="0" width="399" height="389"/>
</clipPath>
<g id="surface17" clip-path="url(#clip5)">
<path style=" stroke:none;fill-rule:nonzero;fill:rgb(0%,0%,0%);fill-opacity:1;" d="M 316.726562 84.691406 L 316.472656 84.691406 C 317.257812 84.691406 318.03125 84.875 318.734375 85.226562 L 317.585938 85.226562 C 315.011719 85.230469 312.925781 87.320312 312.925781 89.902344 L 312.925781 102.28125 C 312.925781 104.863281 315.011719 106.953125 317.585938 106.957031 L 318.316406 106.957031 C 317.730469 107.1875 317.105469 107.304688 316.472656 107.304688 L 316.726562 107.304688 C 319.542969 107.304688 321.828125 105.015625 321.832031 102.191406 L 321.832031 89.808594 C 321.828125 86.984375 319.542969 84.695312 316.726562 84.691406 Z M 316.726562 84.691406 "/>
</g>
</defs>
<g id="surface1">
<path style=" stroke:none;fill-rule:nonzero;fill:rgb(94.901961%,94.901961%,94.901961%);fill-opacity:1;" d="M 375.605469 107.34375 C 371.867188 100.585938 367.71875 94.0625 363.1875 87.8125 C 360.011719 83.425781 356.652344 79.1875 353.117188 75.09375 L 353.109375 75.09375 C 346.710938 67.6875 339.753906 60.78125 332.296875 54.445312 C 330.769531 53.144531 329.222656 51.875 327.65625 50.628906 C 313.507812 39.34375 297.816406 30.15625 281.066406 23.339844 L 281.214844 47.875 L 282.816406 327.589844 L 143.878906 327.589844 L 136.066406 48.40625 L 136.648438 24.257812 C 68.53125 52.976562 20.703125 120.492188 20.703125 199.210938 C 20.691406 215.457031 22.757812 231.640625 26.855469 247.359375 C 28.585938 254.003906 30.683594 260.550781 33.132812 266.964844 C 34.019531 269.292969 34.953125 271.597656 35.933594 273.886719 C 36.40625 275 36.890625 276.101562 37.390625 277.203125 C 38.03125 278.636719 38.699219 280.070312 39.382812 281.484375 C 39.914062 282.597656 40.460938 283.703125 41.019531 284.800781 C 41.742188 286.242188 42.488281 287.671875 43.253906 289.089844 C 43.847656 290.203125 44.457031 291.308594 45.078125 292.40625 C 55.070312 310.121094 67.828125 326.117188 82.867188 339.785156 C 87.15625 343.683594 91.617188 347.378906 96.25 350.871094 C 163.613281 401.609375 256.324219 401.609375 323.6875 350.871094 C 326.210938 348.972656 328.679688 347.011719 331.097656 344.984375 C 332.703125 343.648438 334.28125 342.28125 335.835938 340.894531 C 336.246094 340.523438 336.65625 340.15625 337.066406 339.785156 C 350.933594 327.183594 362.867188 312.601562 372.480469 296.503906 C 376.011719 290.601562 379.214844 284.507812 382.070312 278.253906 C 382.828125 276.601562 383.558594 274.9375 384.269531 273.261719 C 387.535156 265.5625 390.28125 257.652344 392.488281 249.585938 C 392.828125 248.339844 393.15625 247.089844 393.476562 245.835938 L 393.476562 245.832031 C 393.527344 245.613281 393.585938 245.390625 393.640625 245.175781 C 393.964844 243.851562 394.28125 242.523438 394.582031 241.191406 L 394.582031 241.1875 C 395.554688 236.898438 396.375 232.5625 397.046875 228.167969 C 397.128906 227.605469 397.214844 227.042969 397.292969 226.480469 C 397.324219 226.277344 397.355469 226.070312 397.375 225.867188 L 397.375 225.863281 C 397.855469 222.472656 398.242188 219.054688 398.539062 215.613281 C 399 210.207031 399.230469 204.738281 399.234375 199.210938 C 399.285156 167.070312 391.152344 135.453125 375.605469 107.34375 Z M 375.605469 107.34375 "/>
<path style=" stroke:none;fill-rule:nonzero;fill:rgb(90.196078%,90.196078%,90.196078%);fill-opacity:1;" d="M 357.015625 313.730469 C 368.21875 298.558594 372.527344 277.1875 363.8125 260.453125 C 355.640625 279.273438 341.089844 294.589844 322.734375 303.695312 C 315.644531 307.179688 307.394531 310.316406 304.113281 317.515625 C 302.070312 321.996094 302.457031 327.285156 304.101562 331.929688 C 305.742188 336.570312 308.535156 340.703125 311.296875 344.773438 L 311.445312 345.996094 C 328.839844 338.765625 345.8125 328.902344 357.015625 313.730469 Z M 357.015625 313.730469 "/>
<path style=" stroke:none;fill-rule:nonzero;fill:rgb(100%,100%,100%);fill-opacity:1;" d="M 363.441406 260.585938 C 362.9375 276.203125 357.542969 291.261719 348.015625 303.628906 C 346.011719 306.328125 343.59375 308.691406 340.855469 310.636719 C 338.128906 312.445312 334.964844 313.488281 331.699219 313.65625 C 328.65625 313.875 325.519531 313.742188 322.582031 314.699219 C 319.558594 315.734375 317.117188 318.015625 315.871094 320.96875 C 314.246094 324.566406 314.007812 328.535156 313.90625 332.421875 C 313.796875 336.742188 313.75 341.226562 311.71875 345.152344 C 311.472656 345.628906 312.222656 345.984375 312.46875 345.507812 C 316.003906 338.679688 313.707031 330.691406 315.816406 323.515625 C 316.796875 320.164062 318.792969 317.089844 322.128906 315.75 C 325.046875 314.574219 328.285156 314.707031 331.367188 314.511719 C 334.554688 314.394531 337.667969 313.496094 340.429688 311.894531 C 343.257812 310.09375 345.761719 307.828125 347.832031 305.1875 C 352.582031 299.320312 356.386719 292.738281 359.101562 285.683594 C 362.242188 277.652344 363.988281 269.136719 364.269531 260.515625 C 364.285156 259.980469 363.457031 260.058594 363.441406 260.585938 Z M 363.441406 260.585938 "/>
<path style=" stroke:none;fill-rule:nonzero;fill:rgb(100%,100%,100%);fill-opacity:1;" d="M 351.316406 299.828125 C 356.039062 302.554688 362.039062 301.453125 365.484375 297.21875 C 365.824219 296.804688 365.195312 296.261719 364.855469 296.675781 C 361.652344 300.625 356.054688 301.644531 351.671875 299.074219 C 351.210938 298.804688 350.855469 299.558594 351.316406 299.828125 Z M 351.316406 299.828125 "/>
<path style=" stroke:none;fill-rule:nonzero;fill:rgb(100%,100%,100%);fill-opacity:1;" d="M 333.257812 313.75 C 331.808594 308.539062 332.375 302.972656 334.835938 298.164062 C 335.082031 297.6875 334.332031 297.332031 334.085938 297.808594 C 331.53125 302.816406 330.957031 308.609375 332.476562 314.027344 C 332.621094 314.542969 333.402344 314.261719 333.257812 313.75 Z M 333.257812 313.75 "/>
<path style=" stroke:none;fill-rule:nonzero;fill:rgb(100%,100%,100%);fill-opacity:1;" d="M 361.144531 277.6875 C 359.128906 277.027344 357.582031 275.394531 357.027344 273.34375 C 356.890625 272.828125 356.109375 273.109375 356.246094 273.625 C 356.871094 275.886719 358.570312 277.6875 360.789062 278.441406 C 360.996094 278.53125 361.238281 278.445312 361.339844 278.242188 C 361.4375 278.035156 361.347656 277.789062 361.144531 277.6875 Z M 361.144531 277.6875 "/>
<path style=" stroke:none;fill-rule:nonzero;fill:rgb(90.196078%,90.196078%,90.196078%);fill-opacity:1;" d="M 301.453125 247.136719 C 301.53125 247.460938 301.609375 247.789062 301.679688 248.121094 C 302.699219 252.503906 303.355469 256.96875 303.652344 261.460938 C 303.679688 261.808594 303.703125 262.160156 303.722656 262.507812 C 304.320312 273.339844 302.90625 284.1875 299.550781 294.503906 C 298.214844 298.605469 296.566406 302.601562 294.621094 306.453125 C 291.9375 311.773438 288.605469 317.328125 287.855469 323.058594 C 287.769531 323.65625 287.722656 324.257812 287.710938 324.859375 L 309.945312 346.078125 C 310.019531 346.101562 310.089844 346.128906 310.167969 346.152344 L 311.015625 347.042969 C 311.128906 346.851562 311.242188 346.648438 311.359375 346.457031 C 311.425781 346.347656 311.484375 346.230469 311.550781 346.121094 C 311.59375 346.042969 311.636719 345.96875 311.679688 345.902344 C 311.695312 345.878906 311.710938 345.851562 311.71875 345.832031 C 311.761719 345.765625 311.796875 345.699219 311.832031 345.640625 C 312.472656 344.515625 313.109375 343.386719 313.738281 342.25 C 313.742188 342.246094 313.742188 342.246094 313.742188 342.238281 C 318.503906 333.566406 322.585938 324.421875 325.152344 314.949219 C 325.230469 314.664062 325.3125 314.375 325.378906 314.078125 C 326.511719 309.800781 327.296875 305.441406 327.71875 301.035156 C 327.945312 298.621094 328.046875 296.199219 328.027344 293.777344 C 327.964844 287.515625 326.921875 281.304688 324.929688 275.367188 C 320.964844 263.535156 313.269531 253.109375 302.296875 247.554688 C 302.015625 247.410156 301.738281 247.273438 301.453125 247.136719 Z M 301.453125 247.136719 "/>
<path style=" stroke:none;fill-rule:nonzero;fill:rgb(100%,100%,100%);fill-opacity:1;" d="M 301.234375 247.46875 C 310.214844 260.238281 314.949219 275.519531 314.769531 291.144531 C 314.792969 294.507812 314.28125 297.851562 313.265625 301.058594 C 312.171875 304.148438 310.273438 306.890625 307.765625 308.996094 C 305.46875 311.007812 302.886719 312.796875 301.113281 315.332031 C 299.320312 317.984375 298.742188 321.277344 299.523438 324.386719 C 300.382812 328.238281 302.578125 331.550781 304.832031 334.71875 C 307.339844 338.230469 309.996094 341.839844 310.730469 346.203125 C 310.820312 346.730469 311.632812 346.5625 311.542969 346.035156 C 310.265625 338.449219 303.636719 333.457031 301.003906 326.453125 C 299.777344 323.183594 299.527344 319.527344 301.382812 316.441406 C 303.007812 313.742188 305.671875 311.894531 308.015625 309.878906 C 310.488281 307.859375 312.433594 305.265625 313.679688 302.320312 C 314.855469 299.175781 315.492188 295.855469 315.558594 292.5 C 315.828125 284.945312 314.914062 277.394531 312.84375 270.125 C 310.527344 261.816406 306.808594 253.964844 301.851562 246.910156 C 301.546875 246.472656 300.929688 247.035156 301.234375 247.46875 Z M 301.234375 247.46875 "/>
<path style=" stroke:none;fill-rule:nonzero;fill:rgb(100%,100%,100%);fill-opacity:1;" d="M 315.125 286.117188 C 320.53125 285.445312 324.660156 280.941406 324.871094 275.484375 C 324.890625 274.949219 324.0625 274.894531 324.042969 275.429688 C 323.855469 280.515625 319.996094 284.707031 314.957031 285.300781 C 314.425781 285.363281 314.597656 286.179688 315.125 286.117188 Z M 315.125 286.117188 "/>
<path style=" stroke:none;fill-rule:nonzero;fill:rgb(100%,100%,100%);fill-opacity:1;" d="M 309.066406 308.128906 C 304.78125 304.84375 301.886719 300.058594 300.964844 294.730469 C 300.875 294.203125 300.0625 294.375 300.152344 294.902344 C 301.125 300.445312 304.144531 305.414062 308.609375 308.824219 C 309.035156 309.148438 309.488281 308.453125 309.066406 308.128906 Z M 309.066406 308.128906 "/>
<path style=" stroke:none;fill-rule:nonzero;fill:rgb(100%,100%,100%);fill-opacity:1;" d="M 309.671875 262.507812 C 307.667969 263.195312 305.453125 262.824219 303.777344 261.523438 C 303.355469 261.191406 302.902344 261.890625 303.320312 262.21875 C 305.175781 263.648438 307.617188 264.0625 309.839844 263.324219 C 310.058594 263.269531 310.203125 263.054688 310.164062 262.832031 C 310.113281 262.609375 309.894531 262.464844 309.671875 262.507812 Z M 309.671875 262.507812 "/>
<path style=" stroke:none;fill-rule:nonzero;fill:rgb(90.196078%,90.196078%,90.196078%);fill-opacity:1;" d="M 8.835938 228.753906 C -1.101562 212.71875 -3.660156 191.066406 6.382812 175.097656 C 13 194.523438 26.261719 210.976562 43.816406 221.542969 C 50.601562 225.59375 58.570312 229.390625 61.257812 236.835938 C 62.929688 241.46875 62.113281 246.707031 60.101562 251.203125 C 58.089844 255.695312 54.96875 259.585938 51.886719 263.421875 L 51.640625 264.625 C 34.890625 256.003906 18.769531 244.789062 8.835938 228.753906 Z M 8.835938 228.753906 "/>
<path style=" stroke:none;fill-rule:nonzero;fill:rgb(100%,100%,100%);fill-opacity:1;" d="M 6.742188 175.261719 C 5.976562 190.867188 10.132812 206.316406 18.625 219.417969 C 20.40625 222.269531 22.621094 224.824219 25.191406 226.988281 C 27.765625 229.011719 30.832031 230.308594 34.074219 230.742188 C 37.089844 231.207031 40.226562 231.332031 43.078125 232.523438 C 46.007812 233.804688 48.257812 236.273438 49.257812 239.320312 C 50.585938 243.035156 50.503906 247.011719 50.285156 250.894531 C 50.046875 255.207031 49.730469 259.683594 51.4375 263.761719 C 51.644531 264.253906 50.867188 264.546875 50.660156 264.054688 C 47.691406 256.960938 50.625 249.1875 49.105469 241.863281 C 48.398438 238.441406 46.660156 235.21875 43.441406 233.605469 C 40.628906 232.199219 37.394531 232.066406 34.335938 231.621094 C 31.167969 231.246094 28.140625 230.09375 25.515625 228.273438 C 22.84375 226.25 20.53125 223.789062 18.683594 220.988281 C 14.421875 214.75 11.164062 207.878906 9.03125 200.628906 C 6.550781 192.367188 5.5 183.742188 5.921875 175.125 C 5.949219 174.589844 6.765625 174.734375 6.742188 175.261719 Z M 6.742188 175.261719 "/>
<path style=" stroke:none;fill-rule:nonzero;fill:rgb(100%,100%,100%);fill-opacity:1;" d="M 15.644531 215.363281 C 10.714844 217.695312 4.828125 216.105469 1.730469 211.609375 C 1.429688 211.167969 2.101562 210.675781 2.402344 211.117188 C 5.277344 215.3125 10.773438 216.785156 15.351562 214.582031 C 15.832031 214.351562 16.125 215.132812 15.644531 215.363281 Z M 15.644531 215.363281 "/>
<path style=" stroke:none;fill-rule:nonzero;fill:rgb(100%,100%,100%);fill-opacity:1;" d="M 32.515625 230.707031 C 34.378906 225.632812 34.269531 220.039062 32.203125 215.042969 C 32 214.550781 32.777344 214.257812 32.980469 214.75 C 35.121094 219.953125 35.222656 225.773438 33.273438 231.050781 C 33.085938 231.550781 32.332031 231.207031 32.515625 230.707031 Z M 32.515625 230.707031 "/>
<path style=" stroke:none;fill-rule:nonzero;fill:rgb(100%,100%,100%);fill-opacity:1;" d="M 7.644531 192.496094 C 9.707031 192 11.378906 190.496094 12.097656 188.5 C 12.277344 187.996094 13.03125 188.339844 12.855469 188.84375 C 12.050781 191.046875 10.207031 192.707031 7.9375 193.273438 C 7.722656 193.347656 7.488281 193.242188 7.402344 193.03125 C 7.324219 192.816406 7.429688 192.578125 7.644531 192.496094 Z M 7.644531 192.496094 "/>
<path style=" stroke:none;fill-rule:nonzero;fill:rgb(90.196078%,90.196078%,90.196078%);fill-opacity:1;" d="M 69.613281 166.90625 C 69.511719 167.226562 69.40625 167.542969 69.308594 167.867188 C 67.9375 172.15625 66.917969 176.550781 66.261719 181.003906 C 66.203125 181.347656 66.152344 181.695312 66.105469 182.039062 C 64.632812 192.789062 65.164062 203.714844 67.667969 214.269531 C 68.671875 218.46875 69.988281 222.585938 71.613281 226.582031 C 73.855469 232.105469 76.726562 237.914062 77.011719 243.683594 C 77.046875 244.285156 77.046875 244.890625 77.007812 245.492188 L 53.128906 264.832031 C 53.050781 264.847656 52.980469 264.871094 52.902344 264.886719 L 51.984375 265.703125 C 51.886719 265.5 51.789062 265.292969 51.691406 265.089844 C 51.632812 264.976562 51.582031 264.855469 51.523438 264.738281 C 51.488281 264.660156 51.449219 264.582031 51.414062 264.511719 C 51.398438 264.488281 51.386719 264.460938 51.378906 264.4375 C 51.34375 264.371094 51.316406 264.300781 51.28125 264.238281 C 50.734375 263.066406 50.191406 261.890625 49.660156 260.707031 C 49.65625 260.699219 49.65625 260.699219 49.65625 260.691406 C 45.613281 251.664062 42.285156 242.214844 40.496094 232.5625 C 40.441406 232.273438 40.382812 231.976562 40.339844 231.679688 C 39.558594 227.324219 39.128906 222.910156 39.0625 218.488281 C 39.035156 216.0625 39.128906 213.640625 39.347656 211.226562 C 39.917969 204.992188 41.460938 198.886719 43.925781 193.132812 C 48.835938 181.664062 57.355469 171.894531 68.738281 167.253906 C 69.03125 167.132812 69.316406 167.019531 69.613281 166.90625 Z M 69.613281 166.90625 "/>
<path style=" stroke:none;fill-rule:nonzero;fill:rgb(100%,100%,100%);fill-opacity:1;" d="M 69.804688 167.253906 C 59.820312 179.25 53.859375 194.097656 52.773438 209.683594 C 52.480469 213.035156 52.714844 216.410156 53.46875 219.6875 C 54.308594 222.855469 55.980469 225.742188 58.308594 228.046875 C 60.433594 230.238281 62.863281 232.230469 64.421875 234.902344 C 65.996094 237.691406 66.304688 241.023438 65.277344 244.058594 C 64.105469 247.828125 61.648438 250.949219 59.144531 253.921875 C 56.363281 257.21875 53.421875 260.601562 52.335938 264.886719 C 52.203125 265.40625 51.40625 265.171875 51.539062 264.652344 C 53.429688 257.199219 60.441406 252.761719 63.628906 245.996094 C 65.117188 242.839844 65.664062 239.214844 64.066406 235.988281 C 62.664062 233.167969 60.160156 231.109375 57.988281 228.90625 C 55.683594 226.695312 53.957031 223.949219 52.953125 220.910156 C 52.035156 217.683594 51.671875 214.320312 51.875 210.96875 C 52.21875 203.417969 53.746094 195.96875 56.398438 188.890625 C 59.378906 180.796875 63.722656 173.273438 69.234375 166.648438 C 69.578125 166.238281 70.144531 166.847656 69.804688 167.253906 Z M 69.804688 167.253906 "/>
<path style=" stroke:none;fill-rule:nonzero;fill:rgb(100%,100%,100%);fill-opacity:1;" d="M 52.828125 204.644531 C 47.492188 203.53125 43.742188 198.710938 43.976562 193.25 C 43.988281 193.027344 44.171875 192.851562 44.398438 192.855469 C 44.621094 192.859375 44.800781 193.039062 44.804688 193.265625 C 44.582031 198.347656 48.085938 202.839844 53.0625 203.84375 C 53.585938 203.953125 53.347656 204.75 52.828125 204.644531 Z M 52.828125 204.644531 "/>
<path style=" stroke:none;fill-rule:nonzero;fill:rgb(100%,100%,100%);fill-opacity:1;" d="M 57.082031 227.078125 C 61.621094 224.152344 64.890625 219.621094 66.242188 214.382812 C 66.375 213.867188 67.171875 214.101562 67.039062 214.617188 C 65.621094 220.0625 62.207031 224.773438 57.480469 227.808594 C 57.027344 228.097656 56.632812 227.363281 57.082031 227.078125 Z M 57.082031 227.078125 "/>
<path style=" stroke:none;fill-rule:nonzero;fill:rgb(100%,100%,100%);fill-opacity:1;" d="M 60.175781 181.558594 C 62.117188 182.40625 64.355469 182.21875 66.132812 181.054688 C 66.578125 180.761719 66.972656 181.492188 66.527344 181.785156 C 64.5625 183.058594 62.097656 183.273438 59.941406 182.355469 C 59.726562 182.285156 59.605469 182.058594 59.660156 181.839844 C 59.726562 181.621094 59.957031 181.496094 60.175781 181.558594 Z M 60.175781 181.558594 "/>
<path style=" stroke:none;fill-rule:nonzero;fill:rgb(100%,39.607843%,51.764706%);fill-opacity:1;" d="M 219.5625 38.71875 C 219.5625 53.273438 207.789062 65.074219 193.265625 65.074219 C 178.742188 65.074219 166.972656 53.273438 166.972656 38.71875 C 166.972656 24.160156 178.742188 12.359375 193.265625 12.359375 C 207.789062 12.359375 219.5625 24.160156 219.5625 38.71875 Z M 219.5625 38.71875 "/>
<path style=" stroke:none;fill-rule:nonzero;fill:rgb(90.196078%,90.196078%,90.196078%);fill-opacity:1;" d="M 273.777344 37.34375 C 271.40625 34.832031 268.90625 32.453125 266.28125 30.210938 C 261.160156 25.859375 255.488281 22.15625 249.167969 19.824219 C 246.789062 18.941406 244.328125 18.292969 241.824219 17.886719 C 241.523438 17.835938 241.226562 17.789062 240.925781 17.746094 C 240.902344 17.746094 240.882812 17.746094 240.859375 17.746094 C 240.8125 17.734375 240.765625 17.726562 240.71875 17.722656 C 240.101562 17.640625 239.488281 17.578125 238.867188 17.535156 C 235.535156 17.3125 232.183594 17.613281 228.941406 18.429688 C 227.0625 18.90625 225.226562 19.546875 223.457031 20.347656 C 221.683594 21.214844 219.96875 22.191406 218.3125 23.269531 C 217.421875 23.808594 216.507812 24.304688 215.570312 24.753906 C 212.828125 26.054688 209.929688 26.984375 206.945312 27.519531 C 204.925781 27.882812 202.886719 28.085938 200.839844 28.125 C 199.058594 28.160156 197.382812 28.222656 195.699219 28.863281 C 192.050781 30.238281 189.265625 33.261719 188.191406 37.015625 C 188.105469 37.351562 188.25 37.707031 188.546875 37.886719 C 189 38.214844 189.445312 38.589844 189.925781 38.878906 C 190.351562 39.074219 190.804688 39.199219 191.269531 39.25 C 192.03125 39.410156 192.792969 39.5625 193.558594 39.714844 C 196.367188 40.273438 199.1875 40.769531 202.019531 41.199219 C 207.71875 42.0625 213.449219 42.671875 219.210938 43.027344 C 219.246094 43.03125 219.28125 43.035156 219.316406 43.035156 C 225.828125 43.429688 232.351562 43.492188 238.867188 43.226562 C 239.855469 43.1875 240.835938 43.136719 241.824219 43.078125 C 245.933594 42.847656 250.03125 42.484375 254.121094 41.988281 C 257.902344 41.527344 261.671875 40.957031 265.425781 40.273438 C 268.105469 39.785156 270.773438 39.242188 273.433594 38.640625 C 273.699219 38.5625 273.902344 38.351562 273.972656 38.085938 C 274.039062 37.820312 273.964844 37.539062 273.777344 37.34375 Z M 273.777344 37.34375 "/>
<path style=" stroke:none;fill-rule:nonzero;fill:rgb(90.196078%,90.196078%,90.196078%);fill-opacity:1;" d="M 219.121094 72.488281 C 215.316406 68.40625 211.121094 64.703125 206.597656 61.4375 C 205.097656 60.382812 203.554688 59.386719 201.96875 58.480469 C 200.019531 57.351562 197.996094 56.363281 195.914062 55.511719 C 195.449219 55.324219 194.980469 55.140625 194.511719 54.96875 C 191.847656 53.980469 189.085938 53.28125 186.273438 52.890625 C 186.25 52.886719 186.226562 52.890625 186.207031 52.886719 C 186.160156 52.878906 186.113281 52.871094 186.066406 52.863281 C 184.703125 52.683594 183.328125 52.601562 181.953125 52.609375 C 180.96875 52.609375 179.976562 52.660156 178.996094 52.757812 C 177.40625 52.917969 175.835938 53.1875 174.289062 53.574219 C 173.523438 53.765625 172.761719 53.988281 172.015625 54.242188 C 170.925781 54.601562 169.851562 55.015625 168.808594 55.492188 C 168.789062 55.5 168.777344 55.503906 168.757812 55.511719 C 167.003906 56.375 165.300781 57.34375 163.664062 58.414062 C 163.628906 58.433594 163.585938 58.457031 163.550781 58.480469 C 161.691406 59.59375 159.722656 60.519531 157.675781 61.238281 C 155.921875 61.851562 154.121094 62.332031 152.289062 62.664062 C 150.273438 63.027344 148.230469 63.230469 146.183594 63.265625 C 144.40625 63.300781 142.730469 63.363281 141.050781 64.007812 C 137.398438 65.382812 134.613281 68.40625 133.539062 72.160156 C 133.453125 72.496094 133.597656 72.847656 133.890625 73.03125 C 134.347656 73.359375 134.792969 73.726562 135.273438 74.019531 C 135.695312 74.21875 136.152344 74.339844 136.617188 74.390625 C 137.378906 74.546875 138.136719 74.707031 138.902344 74.859375 C 141.710938 75.417969 144.535156 75.910156 147.371094 76.339844 C 151.257812 76.929688 155.164062 77.402344 159.085938 77.753906 C 160.941406 77.925781 162.800781 78.070312 164.664062 78.179688 C 169.433594 78.46875 174.214844 78.582031 178.996094 78.515625 C 179.980469 78.503906 180.96875 78.480469 181.953125 78.449219 C 187.8125 78.277344 193.652344 77.835938 199.472656 77.128906 C 205.960938 76.34375 212.40625 75.226562 218.78125 73.78125 C 219.042969 73.703125 219.246094 73.496094 219.316406 73.230469 C 219.386719 72.964844 219.3125 72.683594 219.121094 72.488281 Z M 219.121094 72.488281 "/>
<path style=" stroke:none;fill-rule:nonzero;fill:rgb(80%,80%,80%);fill-opacity:1;" d="M 153.578125 1.75 L 176.746094 322.628906 L 130.414062 326.75 L 130.414062 5.832031 C 135.933594 1.511719 143.859375 0.832031 153.578125 1.75 Z M 153.578125 1.75 "/>
<path style=" stroke:none;fill-rule:nonzero;fill:rgb(80%,80%,80%);fill-opacity:1;" d="M 267.925781 1.75 L 244.761719 322.628906 L 291.09375 326.75 L 291.09375 5.832031 C 285.570312 1.511719 277.648438 0.832031 267.925781 1.75 Z M 267.925781 1.75 "/>
<path style=" stroke:none;fill-rule:nonzero;fill:rgb(80%,80%,80%);fill-opacity:1;" d="M 292.183594 5.972656 C 290.746094 2.4375 287.6875 0 284.152344 0 L 136.859375 0 C 131.945312 0 127.949219 4.726562 127.949219 10.542969 L 127.949219 329.46875 C 127.90625 332.417969 129.007812 335.273438 131.019531 337.425781 C 132.074219 338.535156 133.40625 339.335938 134.878906 339.742188 C 135.523438 339.921875 136.191406 340.011719 136.859375 340.011719 L 284.152344 340.011719 C 284.824219 340.011719 285.488281 339.921875 286.136719 339.742188 C 290.097656 338.675781 293.0625 334.476562 293.0625 329.46875 L 293.0625 10.542969 C 293.066406 8.976562 292.769531 7.425781 292.183594 5.972656 Z M 290.109375 329.46875 C 290.109375 333.351562 287.4375 336.515625 284.152344 336.515625 L 136.859375 336.515625 C 134.140625 336.515625 131.835938 334.34375 131.128906 331.382812 C 130.980469 330.757812 130.90625 330.113281 130.90625 329.46875 L 130.90625 10.542969 C 130.90625 6.65625 133.578125 3.5 136.859375 3.5 L 284.152344 3.5 C 284.757812 3.5 285.355469 3.609375 285.921875 3.820312 C 288.34375 4.710938 290.109375 7.386719 290.109375 10.542969 Z M 290.109375 329.46875 "/>
<path style=" stroke:none;fill-rule:nonzero;fill:rgb(80%,80%,80%);fill-opacity:1;" d="M 129.429688 96.941406 L 291.585938 96.941406 L 291.585938 99.90625 L 129.429688 99.90625 Z M 129.429688 96.941406 "/>
<path style=" stroke:none;fill-rule:nonzero;fill:rgb(80%,80%,80%);fill-opacity:1;" d="M 129.429688 35.75 L 291.585938 35.75 L 291.585938 38.714844 L 129.429688 38.714844 Z M 129.429688 35.75 "/>
<path style=" stroke:none;fill-rule:nonzero;fill:rgb(80%,80%,80%);fill-opacity:1;" d="M 129.429688 146.347656 L 291.585938 146.347656 L 291.585938 149.3125 L 129.429688 149.3125 Z M 129.429688 146.347656 "/>
<path style=" stroke:none;fill-rule:nonzero;fill:rgb(80%,80%,80%);fill-opacity:1;" d="M 179.09375 1.332031 L 182.050781 1.332031 L 182.050781 188.339844 L 179.09375 188.339844 Z M 179.09375 1.332031 "/>
<path style=" stroke:none;fill-rule:nonzero;fill:rgb(80%,80%,80%);fill-opacity:1;" d="M 238.964844 1.332031 L 241.921875 1.332031 L 241.921875 188.339844 L 238.964844 188.339844 Z M 238.964844 1.332031 "/>
<path style=" stroke:none;fill-rule:nonzero;fill:rgb(80%,80%,80%);fill-opacity:1;" d="M 310.066406 321.484375 L 115.875 321.484375 C 108.527344 321.492188 102.574219 327.460938 102.566406 334.824219 C 102.566406 336.523438 102.890625 338.207031 103.527344 339.785156 C 105.546875 344.84375 110.4375 348.164062 115.875 348.164062 L 310.066406 348.164062 C 314.792969 348.164062 319.164062 345.648438 321.550781 341.558594 C 321.886719 340.992188 322.175781 340.398438 322.417969 339.785156 C 323.054688 338.207031 323.378906 336.523438 323.378906 334.824219 C 323.367188 327.460938 317.414062 321.492188 310.066406 321.484375 Z M 310.066406 321.484375 "/>
<path style=" stroke:none;fill-rule:nonzero;fill:rgb(80%,80%,80%);fill-opacity:1;" d="M 130.414062 181.425781 L 291.585938 181.425781 L 291.585938 191.304688 L 130.414062 191.304688 Z M 130.414062 181.425781 "/>
<path style=" stroke:none;fill-rule:nonzero;fill:rgb(80%,80%,80%);fill-opacity:1;" d="M 209.519531 178.460938 L 212.476562 178.460938 C 215.472656 178.460938 217.898438 180.894531 217.898438 183.894531 L 204.097656 183.894531 C 204.097656 180.894531 206.527344 178.460938 209.519531 178.460938 Z M 209.519531 178.460938 "/>
<path style=" stroke:none;fill-rule:nonzero;fill:rgb(100%,72.156863%,72.156863%);fill-opacity:1;" d="M 244.386719 178.675781 C 244.386719 195.582031 230.710938 209.289062 213.84375 209.289062 C 196.972656 209.289062 183.296875 195.582031 183.296875 178.675781 C 183.296875 161.765625 196.972656 148.058594 213.84375 148.058594 C 230.710938 148.058594 244.386719 161.765625 244.386719 178.675781 Z M 244.386719 178.675781 "/>
<path style=" stroke:none;fill-rule:nonzero;fill:rgb(18.431373%,18.039216%,25.490196%);fill-opacity:1;" d="M 179.769531 149.222656 C 180 145.703125 182.320312 142.105469 189.691406 140.226562 C 189.691406 140.226562 202.339844 124.015625 219.523438 132.515625 C 219.523438 132.515625 227.855469 131.082031 234.035156 139.746094 C 234.035156 139.746094 240.160156 136.125 242.746094 142.542969 C 242.746094 142.542969 249.929688 155.636719 247.285156 168.992188 C 244.640625 182.34375 243.285156 184.011719 243.285156 184.011719 C 243.285156 184.011719 246.65625 156.386719 227.238281 158.304688 C 207.820312 160.21875 192.1875 153.375 187.789062 168.359375 C 184.136719 180.804688 184.597656 187.269531 184.597656 187.269531 C 184.597656 187.269531 172.386719 174.855469 176.539062 165.078125 C 178.664062 160.078125 179.414062 154.644531 179.769531 149.222656 Z M 179.769531 149.222656 "/>
<path style=" stroke:none;fill-rule:nonzero;fill:rgb(42.352941%,38.823529%,100%);fill-opacity:1;" d="M 130.78125 345.992188 L 299.730469 345.992188 C 298.601562 333.074219 297.863281 283.695312 297.863281 280.445312 C 297.863281 266.109375 286.160156 250.46875 286.160156 250.46875 L 281.972656 248.148438 L 246.996094 237.207031 L 237.941406 225.421875 C 236.019531 222.914062 233.035156 221.453125 229.878906 221.476562 L 201.285156 221.691406 C 198.769531 221.710938 196.351562 222.671875 194.503906 224.386719 L 176.796875 240.851562 L 150.828125 253.28125 L 150.785156 253.238281 L 150.511719 253.441406 L 146.660156 256.222656 L 144.179688 258.019531 C 144.179688 258.019531 137.675781 265.839844 132.476562 289.296875 C 131.695312 292.824219 131.148438 338.5 130.78125 345.992188 Z M 130.78125 345.992188 "/>
<path style=" stroke:none;fill-rule:nonzero;fill:rgb(80%,80%,80%);fill-opacity:1;" d="M 338.835938 339.785156 C 338.425781 340.15625 338.015625 340.523438 337.605469 340.894531 C 336.046875 342.28125 334.46875 343.644531 332.867188 344.984375 C 330.445312 347.007812 327.976562 348.96875 325.457031 350.871094 L 98.019531 350.871094 C 93.386719 347.386719 88.925781 343.691406 84.636719 339.785156 Z M 338.835938 339.785156 "/>
<path style=" stroke:none;fill-rule:nonzero;fill:rgb(18.431373%,18.039216%,25.490196%);fill-opacity:1;" d="M 255.464844 342.445312 L 171.859375 342.445312 L 173.628906 334.019531 L 253.695312 334.019531 Z M 255.464844 342.445312 "/>
<path style=" stroke:none;fill-rule:nonzero;fill:rgb(24.705882%,23.921569%,33.72549%);fill-opacity:1;" d="M 331.105469 306.085938 L 309.351562 306.085938 C 308.355469 306.082031 307.414062 306.519531 306.773438 307.28125 C 306.46875 307.222656 306.160156 307.195312 305.851562 307.195312 C 303 307.191406 300.6875 309.507812 300.6875 312.367188 C 300.6875 315.226562 303 317.542969 305.851562 317.539062 C 306.628906 317.539062 307.398438 317.359375 308.097656 317.015625 L 308.460938 321.484375 L 309.902344 339.152344 C 309.972656 339.371094 310.0625 339.582031 310.179688 339.785156 C 310.773438 340.878906 311.914062 341.558594 313.15625 341.558594 L 327.300781 341.558594 C 328.542969 341.558594 329.6875 340.878906 330.285156 339.785156 C 330.394531 339.582031 330.484375 339.371094 330.554688 339.152344 L 334.359375 310.496094 C 334.675781 309.464844 334.484375 308.339844 333.84375 307.46875 C 333.199219 306.597656 332.183594 306.085938 331.105469 306.085938 Z M 305.851562 316.0625 C 303.816406 316.058594 302.167969 314.40625 302.167969 312.367188 C 302.167969 310.328125 303.816406 308.671875 305.851562 308.671875 C 305.917969 308.671875 305.980469 308.6875 306.046875 308.691406 C 305.902344 309.289062 305.917969 309.910156 306.097656 310.496094 L 307.65625 315.570312 C 307.109375 315.890625 306.484375 316.058594 305.851562 316.0625 Z M 305.851562 316.0625 "/>
<path style=" stroke:none;fill-rule:nonzero;fill:rgb(24.705882%,23.921569%,33.72549%);fill-opacity:1;" d="M 281.96875 212.335938 L 144.25 212.335938 C 141.789062 212.339844 139.792969 214.339844 139.789062 216.808594 L 139.789062 309.960938 C 139.789062 312.429688 141.785156 314.433594 144.25 314.433594 L 281.96875 314.433594 C 284.433594 314.433594 286.429688 312.429688 286.433594 309.960938 L 286.433594 216.808594 C 286.429688 214.339844 284.433594 212.339844 281.96875 212.335938 Z M 281.96875 212.335938 "/>
<path style=" stroke:none;fill-rule:nonzero;fill:rgb(18.431373%,18.039216%,25.490196%);fill-opacity:1;" d="M 228.617188 286.972656 L 196.402344 286.972656 C 195.453125 286.976562 194.683594 287.75 194.683594 288.699219 L 194.683594 339.714844 L 230.339844 339.714844 L 230.339844 288.699219 C 230.339844 288.242188 230.160156 287.804688 229.835938 287.480469 C 229.511719 287.15625 229.074219 286.972656 228.617188 286.972656 Z M 212.617188 315.960938 C 210.523438 315.949219 208.824219 314.25 208.8125 312.148438 L 208.8125 306.261719 C 208.816406 304.160156 210.519531 302.453125 212.617188 302.453125 C 214.71875 302.453125 216.421875 304.160156 216.421875 306.261719 L 216.421875 312.148438 C 216.414062 314.25 214.714844 315.949219 212.617188 315.960938 Z M 212.617188 315.960938 "/>
<path style=" stroke:none;fill-rule:nonzero;fill:rgb(24.705882%,23.921569%,33.72549%);fill-opacity:1;" d="M 194.574219 338.082031 L 194.574219 343.003906 C 194.574219 343.535156 195.003906 343.964844 195.535156 343.964844 L 229.492188 343.964844 C 230.019531 343.964844 230.449219 343.535156 230.449219 343.003906 L 230.449219 338.082031 Z M 194.574219 338.082031 "/>
<path style=" stroke:none;fill-rule:nonzero;fill:rgb(18.431373%,18.039216%,25.490196%);fill-opacity:1;" d="M 281.214844 306.808594 C 281.214844 308.011719 280.242188 308.988281 279.039062 308.988281 C 277.839844 308.988281 276.867188 308.011719 276.867188 306.808594 C 276.867188 305.605469 277.839844 304.628906 279.039062 304.628906 C 280.242188 304.628906 281.214844 305.605469 281.214844 306.808594 Z M 281.214844 306.808594 "/>
<path style=" stroke:none;fill-rule:nonzero;fill:rgb(18.431373%,18.039216%,25.490196%);fill-opacity:1;" d="M 161.636719 303.648438 C 161.214844 303.648438 160.875 303.988281 160.875 304.410156 L 160.875 308.332031 C 160.875 308.753906 161.214844 309.09375 161.636719 309.09375 C 162.054688 309.09375 162.394531 308.753906 162.398438 308.332031 L 162.398438 304.410156 C 162.398438 303.988281 162.054688 303.648438 161.636719 303.648438 Z M 161.636719 303.648438 "/>
<path style=" stroke:none;fill-rule:nonzero;fill:rgb(18.431373%,18.039216%,25.490196%);fill-opacity:1;" d="M 165.769531 303.648438 C 165.347656 303.648438 165.007812 303.988281 165.007812 304.410156 L 165.007812 308.332031 C 165.007812 308.753906 165.347656 309.097656 165.769531 309.097656 C 166.1875 309.097656 166.527344 308.753906 166.527344 308.332031 L 166.527344 304.410156 C 166.527344 303.988281 166.1875 303.648438 165.769531 303.648438 Z M 165.769531 303.648438 "/>
<path style=" stroke:none;fill-rule:nonzero;fill:rgb(18.431373%,18.039216%,25.490196%);fill-opacity:1;" d="M 169.898438 303.648438 C 169.480469 303.648438 169.136719 303.988281 169.136719 304.410156 L 169.136719 308.332031 C 169.140625 308.753906 169.480469 309.09375 169.898438 309.09375 C 170.320312 309.09375 170.660156 308.753906 170.660156 308.332031 L 170.660156 304.410156 C 170.660156 303.988281 170.320312 303.648438 169.898438 303.648438 Z M 169.898438 303.648438 "/>
<path style=" stroke:none;fill-rule:nonzero;fill:rgb(18.431373%,18.039216%,25.490196%);fill-opacity:1;" d="M 174.03125 303.648438 C 173.609375 303.648438 173.269531 303.988281 173.269531 304.410156 L 173.269531 308.332031 C 173.269531 308.753906 173.613281 309.09375 174.03125 309.09375 C 174.449219 309.09375 174.792969 308.753906 174.792969 308.332031 L 174.792969 304.410156 C 174.792969 303.988281 174.453125 303.648438 174.03125 303.648438 Z M 174.03125 303.648438 "/>
<path style=" stroke:none;fill-rule:nonzero;fill:rgb(100%,72.156863%,72.156863%);fill-opacity:1;" d="M 188.828125 328.699219 C 188.828125 335.066406 183.679688 340.226562 177.328125 340.226562 C 170.976562 340.226562 165.828125 335.066406 165.828125 328.699219 C 165.828125 322.332031 170.976562 317.171875 177.328125 317.171875 C 183.679688 317.171875 188.828125 322.332031 188.828125 328.699219 Z M 188.828125 328.699219 "/>
<path style=" stroke:none;fill-rule:nonzero;fill:rgb(100%,72.156863%,72.156863%);fill-opacity:1;" d="M 269.179688 330.917969 C 269.179688 337.285156 264.03125 342.445312 257.679688 342.445312 C 251.324219 342.445312 246.175781 337.285156 246.175781 330.917969 C 246.175781 324.550781 251.324219 319.386719 257.679688 319.386719 C 264.03125 319.386719 269.179688 324.550781 269.179688 330.917969 Z M 269.179688 330.917969 "/>
<path style=" stroke:none;fill-rule:nonzero;fill:rgb(24.705882%,23.921569%,33.72549%);fill-opacity:1;" d="M 376.394531 191.761719 C 375.257812 189.878906 373.910156 187.867188 371.800781 187.25 C 369.359375 186.539062 366.851562 187.953125 364.722656 189.351562 C 358.355469 193.527344 352.226562 198.054688 346.363281 202.910156 L 346.367188 202.984375 C 350.933594 202.667969 354.726562 214.839844 359.292969 214.523438 C 362.589844 214.296875 366.78125 201.546875 369.695312 199.984375 C 370.804688 199.390625 371.882812 198.597656 373.136719 198.542969 C 374.695312 198.472656 376.050781 199.5625 377.121094 200.703125 C 383.433594 207.441406 385.261719 217.75 392.34375 223.671875 C 387.878906 212.628906 382.542969 201.957031 376.394531 191.761719 Z M 376.394531 191.761719 "/>
<path style=" stroke:none;fill-rule:nonzero;fill:rgb(24.705882%,23.921569%,33.72549%);fill-opacity:1;" d="M 388.546875 208.132812 C 391.878906 214.160156 395.410156 220.074219 399.144531 225.863281 L 399.144531 225.867188 C 399.125 226.070312 399.09375 226.277344 399.0625 226.480469 C 398.609375 225.789062 398.164062 225.09375 397.722656 224.394531 C 394.367188 219.125 391.183594 213.75 388.164062 208.277344 C 386.730469 205.675781 385.332031 203.050781 383.96875 200.40625 C 382.914062 198.359375 381.886719 196.296875 380.875 194.226562 C 380.589844 193.632812 380.308594 193.039062 380.03125 192.4375 C 379.375 191.039062 378.730469 189.628906 378.039062 188.246094 C 377.253906 186.667969 376.292969 185.015625 374.847656 183.957031 C 374.1875 183.453125 373.402344 183.148438 372.578125 183.078125 C 371.417969 183.085938 370.28125 183.414062 369.289062 184.023438 C 361.808594 187.964844 354.824219 192.792969 348.488281 198.402344 C 342.140625 203.992188 336.472656 210.300781 331.589844 217.207031 C 331.4375 217.421875 331.082031 217.21875 331.234375 217 C 331.832031 216.15625 332.433594 215.328125 333.050781 214.503906 C 340.726562 204.273438 350.140625 195.472656 360.855469 188.511719 C 362.65625 187.339844 364.492188 186.222656 366.363281 185.164062 C 367.304688 184.625 368.25 184.097656 369.214844 183.601562 C 370.140625 183.058594 371.175781 182.738281 372.242188 182.660156 C 375.914062 182.605469 377.816406 186.773438 379.121094 189.574219 C 379.527344 190.457031 379.941406 191.339844 380.363281 192.21875 C 381.953125 195.542969 383.601562 198.84375 385.3125 202.113281 C 386.367188 204.132812 387.445312 206.136719 388.546875 208.132812 Z M 388.546875 208.132812 "/>
<path style=" stroke:none;fill-rule:nonzero;fill:rgb(24.705882%,23.921569%,33.72549%);fill-opacity:1;" d="M 348.125 196.34375 C 347.914062 196.105469 347.699219 195.867188 347.484375 195.628906 C 345.792969 193.753906 343.976562 191.898438 341.652344 190.824219 C 340.542969 190.292969 339.332031 190.011719 338.105469 190 C 336.839844 190.035156 335.589844 190.308594 334.425781 190.804688 C 333.871094 191.027344 333.328125 191.277344 332.792969 191.546875 C 332.183594 191.851562 331.585938 192.183594 330.988281 192.511719 C 329.871094 193.132812 328.765625 193.78125 327.675781 194.457031 C 325.503906 195.800781 323.402344 197.246094 321.371094 198.796875 C 320.316406 199.601562 319.28125 200.429688 318.273438 201.285156 C 317.332031 202.082031 316.410156 202.898438 315.507812 203.734375 C 315.316406 203.914062 315.027344 203.625 315.21875 203.449219 C 315.457031 203.226562 315.699219 203.003906 315.9375 202.785156 C 316.617188 202.171875 317.308594 201.566406 318.007812 200.976562 C 319.289062 199.894531 320.597656 198.855469 321.945312 197.859375 C 324.035156 196.304688 326.199219 194.859375 328.433594 193.515625 C 329.550781 192.847656 330.679688 192.203125 331.828125 191.589844 C 332.175781 191.40625 332.527344 191.222656 332.878906 191.054688 C 333.683594 190.644531 334.519531 190.304688 335.378906 190.03125 C 336.597656 189.636719 337.882812 189.511719 339.15625 189.660156 C 340.382812 189.839844 341.5625 190.25 342.636719 190.867188 C 344.921875 192.148438 346.691406 194.125 348.414062 196.054688 C 348.585938 196.25 348.300781 196.539062 348.125 196.34375 Z M 348.125 196.34375 "/>
<path style=" stroke:none;fill-rule:nonzero;fill:rgb(24.705882%,23.921569%,33.72549%);fill-opacity:1;" d="M 331.425781 205.375 C 330.84375 205.402344 330.269531 205.238281 329.792969 204.90625 C 328.53125 203.945312 328.5625 201.640625 329.894531 197.863281 C 330.628906 195.792969 332.179688 194.117188 334.1875 193.234375 C 336.070312 192.394531 338.21875 192.378906 340.109375 193.199219 C 340.269531 193.273438 340.433594 193.347656 340.589844 193.429688 C 341.671875 194.039062 342.6875 194.757812 343.617188 195.582031 C 344.410156 196.269531 345.25 196.894531 346.140625 197.449219 L 346.433594 197.625 L 346.15625 197.820312 C 338.988281 202.878906 334.128906 205.375 331.425781 205.375 Z M 331.425781 205.375 "/>
<path style=" stroke:none;fill-rule:nonzero;fill:rgb(24.705882%,23.921569%,33.72549%);fill-opacity:1;" d="M 358.980469 175.28125 C 354.121094 175.277344 349.941406 171.835938 348.996094 167.054688 C 343.496094 168.171875 339.9375 173.542969 341.042969 179.058594 C 342.144531 184.574219 347.5 188.152344 353.003906 187.054688 C 358.507812 185.957031 362.085938 180.597656 361 175.078125 C 360.335938 175.210938 359.65625 175.28125 358.980469 175.28125 Z M 358.980469 175.28125 "/>
<use xlink:href="#surface5" mask="url(#mask0)"/>
<use xlink:href="#surface8" mask="url(#mask1)"/>
<use xlink:href="#surface11" mask="url(#mask2)"/>
<path style=" stroke:none;fill-rule:nonzero;fill:rgb(24.705882%,23.921569%,33.72549%);fill-opacity:1;" d="M 95.046875 172.257812 L 134.046875 159.976562 L 134.3125 160.820312 L 95.3125 173.101562 Z M 95.046875 172.257812 "/>
<path style=" stroke:none;fill-rule:nonzero;fill:rgb(24.705882%,23.921569%,33.72549%);fill-opacity:1;" d="M 136.066406 160.257812 C 136.066406 161.238281 135.273438 162.03125 134.296875 162.03125 C 133.320312 162.03125 132.527344 161.238281 132.527344 160.257812 C 132.527344 159.277344 133.320312 158.484375 134.296875 158.484375 C 135.273438 158.484375 136.066406 159.277344 136.066406 160.257812 Z M 136.066406 160.257812 "/>
<path style=" stroke:none;fill-rule:nonzero;fill:rgb(24.705882%,23.921569%,33.72549%);fill-opacity:1;" d="M 387.476562 240.066406 C 390.070312 241.898438 392.558594 243.765625 395.410156 245.175781 C 395.355469 245.390625 395.296875 245.613281 395.246094 245.832031 C 394.894531 245.667969 394.554688 245.492188 394.214844 245.316406 C 391.324219 243.800781 388.839844 241.738281 386.128906 239.945312 C 384.78125 239.015625 383.316406 238.277344 381.765625 237.757812 C 380.152344 237.269531 378.464844 237.070312 376.78125 237.171875 C 369.761719 237.515625 363.742188 241.714844 357.21875 243.832031 C 354.023438 244.867188 350.628906 245.421875 347.296875 244.769531 C 343.964844 244.117188 341.007812 242.34375 338.066406 240.738281 C 335.164062 239.152344 332 237.554688 328.609375 237.554688 C 325.851562 237.5625 322.949219 238.667969 321.472656 241.117188 C 321.375 241.269531 321.175781 241.316406 321.023438 241.226562 C 320.867188 241.136719 320.8125 240.9375 320.902344 240.78125 C 321.230469 240.222656 321.636719 239.714844 322.109375 239.269531 C 324.035156 237.4375 326.871094 236.714844 329.476562 236.925781 C 332.847656 237.203125 335.921875 238.796875 338.839844 240.402344 C 341.929688 242.105469 345.097656 243.9375 348.671875 244.308594 C 352.203125 244.683594 355.695312 243.753906 358.96875 242.507812 C 365.308594 240.09375 371.566406 236.066406 378.617188 236.515625 C 381.941406 236.726562 384.792969 238.171875 387.476562 240.066406 Z M 387.476562 240.066406 "/>
<path style=" stroke:none;fill-rule:nonzero;fill:rgb(42.352941%,38.823529%,100%);fill-opacity:1;" d="M 110.007812 111.828125 L 110.007812 112.726562 C 109.710938 112.667969 109.410156 112.640625 109.105469 112.636719 L 104.476562 112.636719 L 104.476562 122.597656 C 104.476562 125.667969 101.992188 128.15625 98.929688 128.15625 L 92.09375 128.15625 L 92.09375 129.691406 C 92.09375 130.308594 92.214844 130.917969 92.449219 131.484375 L 91.503906 131.484375 C 91.304688 130.90625 91.207031 130.300781 91.207031 129.691406 L 91.207031 128.15625 L 87.445312 128.15625 L 87.445312 127.269531 L 91.207031 127.269531 L 91.207031 117.3125 C 91.210938 114.242188 93.691406 111.753906 96.753906 111.75 L 103.59375 111.75 L 103.59375 110.199219 L 104.476562 110.199219 L 104.476562 111.75 L 109.105469 111.75 C 109.40625 111.753906 109.710938 111.777344 110.007812 111.828125 Z M 110.007812 111.828125 "/>
<path style=" stroke:none;fill-rule:nonzero;fill:rgb(24.705882%,23.921569%,33.72549%);fill-opacity:1;" d="M 98.929688 104.65625 L 86.582031 104.65625 C 83.515625 104.660156 81.035156 107.148438 81.03125 110.21875 L 81.03125 122.597656 C 81.035156 125.667969 83.515625 128.15625 86.582031 128.15625 L 98.929688 128.15625 C 101.992188 128.15625 104.476562 125.667969 104.476562 122.597656 L 104.476562 110.199219 C 104.46875 107.136719 101.988281 104.660156 98.929688 104.65625 Z M 103.59375 122.597656 C 103.589844 125.175781 101.503906 127.269531 98.929688 127.269531 L 86.582031 127.269531 C 84.007812 127.269531 81.921875 125.175781 81.917969 122.597656 L 81.917969 110.21875 C 81.921875 107.636719 84.007812 105.546875 86.582031 105.542969 L 98.929688 105.542969 C 101.496094 105.546875 103.582031 107.625 103.59375 110.199219 Z M 103.59375 122.597656 "/>
<path style=" stroke:none;fill-rule:nonzero;fill:rgb(24.705882%,23.921569%,33.72549%);fill-opacity:1;" d="M 91.207031 127.269531 L 91.207031 128.15625 L 92.09375 128.15625 L 92.09375 127.269531 Z M 91.207031 127.269531 L 91.207031 128.15625 L 92.09375 128.15625 L 92.09375 127.269531 Z M 110.007812 111.828125 C 109.710938 111.777344 109.40625 111.753906 109.105469 111.75 L 96.753906 111.75 C 93.691406 111.753906 91.210938 114.242188 91.207031 117.3125 L 91.207031 129.691406 C 91.207031 130.300781 91.304688 130.90625 91.503906 131.484375 C 92.269531 133.738281 94.378906 135.25 96.753906 135.253906 L 109.105469 135.253906 C 112.167969 135.25 114.652344 132.761719 114.652344 129.691406 L 114.652344 117.3125 C 114.652344 114.589844 112.6875 112.269531 110.007812 111.828125 Z M 113.769531 129.691406 C 113.765625 132.273438 111.679688 134.363281 109.105469 134.367188 L 96.753906 134.367188 C 94.179688 134.363281 92.09375 132.273438 92.09375 129.691406 L 92.09375 117.3125 C 92.09375 114.734375 94.179688 112.640625 96.753906 112.636719 L 109.105469 112.636719 C 111.679688 112.640625 113.765625 114.730469 113.769531 117.3125 Z M 91.207031 127.269531 L 91.207031 128.15625 L 92.09375 128.15625 L 92.09375 127.269531 Z M 91.207031 127.269531 "/>
<path style=" stroke:none;fill-rule:nonzero;fill:rgb(42.352941%,38.823529%,100%);fill-opacity:1;" d="M 82.46875 242.863281 L 30.007812 242.863281 C 29.246094 242.863281 28.628906 243.480469 28.625 244.242188 L 28.625 247.359375 C 30.355469 254.003906 32.453125 260.550781 34.902344 266.964844 L 82.46875 266.964844 C 82.835938 266.964844 83.1875 266.820312 83.445312 266.558594 C 83.703125 266.300781 83.847656 265.949219 83.847656 265.585938 L 83.847656 244.242188 C 83.84375 243.480469 83.230469 242.863281 82.46875 242.863281 Z M 82.46875 242.863281 "/>
<path style=" stroke:none;fill-rule:nonzero;fill:rgb(89.411765%,89.411765%,89.411765%);fill-opacity:1;" d="M 77.472656 273.886719 L 37.703125 273.886719 C 38.175781 275 38.660156 276.101562 39.160156 277.203125 L 77.472656 277.203125 C 79.628906 277.234375 79.609375 273.855469 77.472656 273.886719 Z M 77.472656 273.886719 "/>
<path style=" stroke:none;fill-rule:nonzero;fill:rgb(89.411765%,89.411765%,89.411765%);fill-opacity:1;" d="M 77.472656 281.484375 L 41.152344 281.484375 C 41.683594 282.597656 42.230469 283.703125 42.789062 284.800781 L 77.472656 284.800781 C 79.628906 284.832031 79.609375 281.457031 77.472656 281.484375 Z M 77.472656 281.484375 "/>
<path style=" stroke:none;fill-rule:nonzero;fill:rgb(89.411765%,89.411765%,89.411765%);fill-opacity:1;" d="M 77.472656 289.089844 L 45.023438 289.089844 C 45.617188 290.203125 46.226562 291.308594 46.847656 292.40625 L 77.472656 292.40625 C 79.628906 292.4375 79.609375 289.058594 77.472656 289.089844 Z M 77.472656 289.089844 "/>
<path style=" stroke:none;fill-rule:nonzero;fill:rgb(24.705882%,23.921569%,33.72549%);fill-opacity:1;" d="M 349.460938 84.691406 L 349.207031 84.691406 C 349.992188 84.691406 350.765625 84.875 351.46875 85.226562 L 350.320312 85.226562 C 347.746094 85.230469 345.660156 87.320312 345.660156 89.902344 L 345.660156 102.28125 C 345.660156 104.863281 347.746094 106.953125 350.320312 106.957031 L 351.054688 106.957031 C 350.464844 107.1875 349.839844 107.304688 349.207031 107.304688 L 349.460938 107.304688 C 352.277344 107.304688 354.5625 105.015625 354.566406 102.191406 L 354.566406 89.808594 C 354.5625 86.984375 352.277344 84.695312 349.460938 84.691406 Z M 349.460938 84.691406 "/>
<use xlink:href="#surface14" mask="url(#mask3)"/>
<path style=" stroke:none;fill-rule:nonzero;fill:rgb(42.352941%,38.823529%,100%);fill-opacity:1;" d="M 316.726562 84.691406 L 316.472656 84.691406 C 317.257812 84.691406 318.03125 84.875 318.734375 85.226562 L 317.585938 85.226562 C 315.011719 85.230469 312.925781 87.320312 312.925781 89.902344 L 312.925781 102.28125 C 312.925781 104.863281 315.011719 106.953125 317.585938 106.957031 L 318.316406 106.957031 C 317.730469 107.1875 317.105469 107.304688 316.472656 107.304688 L 316.726562 107.304688 C 319.542969 107.304688 321.828125 105.015625 321.832031 102.191406 L 321.832031 89.808594 C 321.828125 86.984375 319.542969 84.695312 316.726562 84.691406 Z M 316.726562 84.691406 "/>
<use xlink:href="#surface17" mask="url(#mask4)"/>
<path style=" stroke:none;fill-rule:nonzero;fill:rgb(42.352941%,38.823529%,100%);fill-opacity:1;" d="M 317.636719 106.992188 C 315.0625 106.992188 312.976562 104.902344 312.972656 102.320312 L 312.972656 89.941406 C 312.976562 87.359375 315.0625 85.269531 317.636719 85.265625 L 318.78125 85.265625 C 318.082031 84.914062 317.308594 84.730469 316.523438 84.730469 L 304.171875 84.730469 C 301.355469 84.734375 299.070312 87.023438 299.066406 89.847656 L 299.066406 102.226562 C 299.070312 105.054688 301.355469 107.34375 304.171875 107.34375 L 316.523438 107.34375 C 317.152344 107.34375 317.78125 107.226562 318.367188 106.992188 Z M 317.636719 106.992188 "/>
<path style=" stroke:none;fill-rule:nonzero;fill:rgb(24.705882%,23.921569%,33.72549%);fill-opacity:1;" d="M 350.371094 106.992188 C 347.796875 106.992188 345.710938 104.902344 345.707031 102.320312 L 345.707031 89.941406 C 345.710938 87.359375 347.796875 85.269531 350.371094 85.265625 L 351.519531 85.265625 C 350.816406 84.914062 350.042969 84.730469 349.257812 84.730469 L 336.90625 84.730469 C 334.089844 84.734375 331.804688 87.023438 331.800781 89.847656 L 331.800781 102.226562 C 331.804688 105.054688 334.089844 107.34375 336.90625 107.34375 L 349.257812 107.34375 C 349.890625 107.34375 350.515625 107.226562 351.101562 106.992188 Z M 350.371094 106.992188 "/>
<path style=" stroke:none;fill-rule:nonzero;fill:rgb(100%,39.607843%,51.764706%);fill-opacity:1;" d="M 364.957031 87.8125 C 369.488281 94.0625 373.636719 100.585938 377.371094 107.34375 L 369.640625 107.34375 C 366.824219 107.339844 364.539062 105.050781 364.535156 102.226562 L 364.535156 89.847656 C 364.535156 89.148438 364.679688 88.453125 364.957031 87.8125 Z M 364.957031 87.8125 "/>
<path style=" stroke:none;fill-rule:nonzero;fill:rgb(80%,80%,80%);fill-opacity:1;" d="M 349.449219 113.839844 L 345.125 107.34375 L 341.960938 102.59375 C 341.585938 102.027344 340.917969 101.730469 340.246094 101.828125 C 339.574219 101.925781 339.015625 102.402344 338.816406 103.050781 L 337.484375 107.34375 L 334.804688 115.96875 C 334.585938 116.671875 334.828125 117.4375 335.410156 117.886719 C 335.988281 118.339844 336.789062 118.382812 337.414062 117.996094 L 338.367188 117.40625 C 338.753906 117.164062 339.238281 117.144531 339.648438 117.347656 C 340.058594 117.554688 340.332031 117.957031 340.375 118.410156 L 341.246094 127.945312 C 341.328125 128.851562 342.085938 129.546875 342.996094 129.550781 C 343.050781 129.550781 343.101562 129.546875 343.160156 129.542969 L 344.496094 129.421875 C 344.960938 129.378906 345.390625 129.152344 345.691406 128.792969 C 345.988281 128.433594 346.132812 127.96875 346.089844 127.5 L 345.191406 117.65625 C 345.148438 117.1875 345.359375 116.730469 345.742188 116.457031 C 346.128906 116.183594 346.628906 116.136719 347.058594 116.335938 L 347.253906 116.425781 C 347.96875 116.757812 348.816406 116.570312 349.328125 115.96875 C 349.839844 115.367188 349.890625 114.496094 349.449219 113.839844 Z M 349.449219 113.839844 "/>
</g>
</svg>
