<?xml version="1.0" encoding="UTF-8"?>
<svg xmlns="http://www.w3.org/2000/svg" xmlns:xlink="http://www.w3.org/1999/xlink" width="400px" height="270px" viewBox="0 0 399 270" version="1.1">
<g id="surface1">
<path style=" stroke:none;fill-rule:nonzero;fill:rgb(94.901961%,94.901961%,94.901961%);fill-opacity:1;" d="M 26.84375 203.523438 C 24.949219 203.523438 23.050781 203.601562 21.195312 203.757812 L 20.925781 203.78125 C 8.632812 204.871094 -0.359375 211.183594 0.0117188 218.464844 L 0.0820312 219.785156 C 0.128906 220.617188 0.179688 221.511719 0.222656 222.503906 C 0.242188 222.992188 0.910156 223.371094 1.742188 223.371094 L 304.140625 223.371094 C 325.460938 223.238281 346.703125 223.078125 367.277344 222.886719 C 371.136719 222.894531 374.992188 222.691406 378.828125 222.285156 C 384.546875 221.609375 388.511719 220.265625 390.960938 218.179688 C 394.003906 215.59375 394.101562 212.339844 393.914062 208.660156 C 393.542969 201.230469 393.167969 193.425781 392.796875 185.648438 C 392.46875 178.789062 392.144531 171.953125 391.816406 165.40625 C 391.617188 161.519531 391.167969 158.089844 387.710938 155.46875 C 383.96875 152.632812 377.136719 151.195312 367.410156 151.195312 C 367.292969 151.195312 367.175781 151.195312 367.054688 151.199219 C 336.574219 151.304688 306.367188 161.800781 291.898438 177.3125 C 290.230469 179.097656 288.675781 181.011719 287.175781 182.859375 C 284.957031 185.59375 282.664062 188.417969 279.925781 190.945312 C 278.441406 192.332031 276.839844 193.582031 275.136719 194.683594 C 275.019531 194.765625 274.882812 194.851562 274.742188 194.933594 C 274.417969 195.148438 274.074219 195.351562 273.746094 195.535156 C 271.804688 196.65625 269.757812 197.585938 267.636719 198.3125 L 267.421875 198.386719 C 267.261719 198.445312 267.085938 198.5 266.910156 198.554688 C 265.6875 198.949219 264.414062 199.289062 263.140625 199.5625 C 257.621094 200.78125 251.351562 201.074219 244.496094 200.429688 C 238.203125 199.824219 231.988281 198.558594 225.960938 196.648438 C 219.613281 194.640625 213.671875 192.136719 207.929688 189.714844 C 205.40625 188.652344 202.792969 187.550781 200.1875 186.507812 C 199.699219 186.3125 199.214844 186.121094 198.726562 185.929688 C 195.542969 184.6875 192.65625 183.660156 189.902344 182.792969 C 183.078125 180.632812 176.015625 179.324219 168.875 178.890625 C 161.292969 178.476562 154.613281 179.261719 149.023438 181.214844 C 147.480469 181.753906 145.980469 182.402344 144.53125 183.152344 C 137.910156 186.597656 133.828125 191.679688 129.878906 196.59375 C 124.96875 202.703125 119.894531 209.027344 109.867188 212.300781 C 98.296875 216.085938 81.410156 214.515625 69.460938 211.78125 C 65.707031 210.921875 61.953125 209.929688 58.324219 208.976562 C 56.859375 208.589844 55.394531 208.203125 53.925781 207.824219 C 51.042969 207.078125 48.683594 206.507812 46.5 206.023438 L 45.808594 205.871094 C 45.425781 205.785156 45.039062 205.703125 44.648438 205.625 C 42.054688 205.078125 39.640625 204.648438 37.261719 204.3125 L 36.699219 204.230469 C 35.570312 204.082031 34.515625 203.957031 33.480469 203.851562 L 33.070312 203.8125 C 31.042969 203.617188 28.945312 203.523438 26.84375 203.523438 Z M 26.84375 203.523438 "/>
<path style=" stroke:none;fill-rule:nonzero;fill:rgb(90.196078%,90.196078%,90.196078%);fill-opacity:1;" d="M 339.539062 211.652344 C 348.050781 203.972656 360.707031 200.113281 371.320312 204.417969 C 360.433594 210.472656 352.03125 220.1875 347.605469 231.847656 C 345.917969 236.347656 344.503906 241.53125 340.347656 243.945312 C 337.761719 245.445312 334.542969 245.515625 331.644531 244.792969 C 328.742188 244.070312 326.085938 242.617188 323.460938 241.179688 L 322.71875 241.164062 C 326.066406 230.195312 331.03125 219.328125 339.539062 211.652344 Z M 339.539062 211.652344 "/>
<path style=" stroke:none;fill-rule:nonzero;fill:rgb(100%,100%,100%);fill-opacity:1;" d="M 371.261719 204.652344 C 361.859375 205.867188 353.078125 210.019531 346.167969 216.519531 C 344.65625 217.890625 343.367188 219.492188 342.355469 221.265625 C 341.421875 223.027344 340.976562 225.003906 341.066406 226.996094 C 341.113281 228.851562 341.375 230.746094 340.96875 232.582031 C 340.519531 234.476562 339.285156 236.089844 337.574219 237.015625 C 335.496094 238.210938 333.113281 238.589844 330.769531 238.875 C 328.167969 239.195312 325.460938 239.484375 323.210938 240.949219 C 322.9375 241.125 322.679688 240.691406 322.953125 240.511719 C 326.871094 237.972656 331.828125 238.894531 336.039062 237.199219 C 338.007812 236.40625 339.746094 235.019531 340.363281 232.917969 C 340.898438 231.082031 340.632812 229.125 340.570312 227.246094 C 340.453125 225.304688 340.8125 223.367188 341.621094 221.597656 C 342.539062 219.78125 343.761719 218.128906 345.238281 216.722656 C 348.503906 213.496094 352.257812 210.808594 356.359375 208.75 C 361.027344 206.375 366.066406 204.820312 371.257812 204.148438 C 371.578125 204.105469 371.582031 204.609375 371.261719 204.652344 Z M 371.261719 204.652344 "/>
<path style=" stroke:none;fill-rule:nonzero;fill:rgb(100%,100%,100%);fill-opacity:1;" d="M 348.269531 214.296875 C 346.347656 211.589844 346.664062 207.890625 349.015625 205.554688 C 349.25 205.324219 349.613281 205.675781 349.382812 205.902344 C 347.183594 208.074219 346.898438 211.527344 348.703125 214.035156 C 348.894531 214.300781 348.460938 214.558594 348.269531 214.296875 Z M 348.269531 214.296875 "/>
<path style=" stroke:none;fill-rule:nonzero;fill:rgb(100%,100%,100%);fill-opacity:1;" d="M 340.917969 226.054688 C 344.148438 226.628906 347.476562 225.960938 350.238281 224.1875 C 350.511719 224.011719 350.773438 224.445312 350.5 224.621094 C 347.621094 226.464844 344.15625 227.148438 340.796875 226.546875 C 340.476562 226.488281 340.601562 226 340.917969 226.054688 Z M 340.917969 226.054688 "/>
<path style=" stroke:none;fill-rule:nonzero;fill:rgb(100%,100%,100%);fill-opacity:1;" d="M 361.066406 207.042969 C 361.585938 208.226562 362.664062 209.066406 363.933594 209.285156 C 364.253906 209.339844 364.128906 209.828125 363.808594 209.773438 C 362.40625 209.527344 361.21875 208.605469 360.632812 207.304688 C 360.566406 207.183594 360.605469 207.03125 360.722656 206.957031 C 360.839844 206.886719 360.996094 206.925781 361.066406 207.042969 Z M 361.066406 207.042969 "/>
<path style=" stroke:none;fill-rule:nonzero;fill:rgb(90.196078%,90.196078%,90.196078%);fill-opacity:1;" d="M 383.011719 241.441406 C 382.8125 241.414062 382.609375 241.386719 382.40625 241.363281 C 379.695312 241.003906 376.964844 240.863281 374.234375 240.945312 C 374.019531 240.949219 373.808594 240.957031 373.597656 240.964844 C 367.019531 241.238281 360.550781 242.726562 354.515625 245.363281 C 352.113281 246.414062 349.796875 247.648438 347.585938 249.050781 C 344.527344 250.988281 341.367188 253.332031 337.953125 254.121094 C 337.59375 254.210938 337.234375 254.273438 336.871094 254.316406 L 322.753906 242.074219 C 322.734375 242.03125 322.714844 241.992188 322.695312 241.945312 L 322.109375 241.484375 C 322.21875 241.402344 322.335938 241.324219 322.445312 241.242188 C 322.507812 241.195312 322.574219 241.152344 322.636719 241.105469 C 322.679688 241.074219 322.722656 241.042969 322.757812 241.015625 C 322.773438 241.003906 322.789062 240.992188 322.800781 240.988281 C 322.835938 240.957031 322.875 240.933594 322.910156 240.90625 C 323.550781 240.453125 324.195312 240 324.84375 239.554688 C 324.847656 239.550781 324.847656 239.550781 324.851562 239.550781 C 329.769531 236.097656 335.078125 233.238281 340.667969 231.039062 C 340.835938 230.976562 341.003906 230.910156 341.179688 230.851562 C 343.695312 229.914062 346.285156 229.183594 348.921875 228.667969 C 350.367188 228.390625 351.824219 228.1875 353.289062 228.058594 C 357.074219 227.730469 360.886719 228 364.585938 228.859375 C 371.964844 230.574219 378.714844 234.628906 382.710938 240.957031 C 382.8125 241.117188 382.914062 241.277344 383.011719 241.441406 Z M 383.011719 241.441406 "/>
<path style=" stroke:none;fill-rule:nonzero;fill:rgb(100%,100%,100%);fill-opacity:1;" d="M 382.824219 241.59375 C 374.585938 236.898438 365.078125 234.921875 355.652344 235.941406 C 353.621094 236.125 351.628906 236.628906 349.753906 237.433594 C 347.949219 238.277344 346.40625 239.589844 345.28125 241.230469 C 344.199219 242.742188 343.269531 244.410156 341.84375 245.632812 C 340.34375 246.875 338.390625 247.417969 336.46875 247.128906 C 334.089844 246.828125 331.960938 245.695312 329.917969 244.511719 C 327.648438 243.199219 325.3125 241.796875 322.632812 241.605469 C 322.308594 241.585938 322.363281 241.082031 322.6875 241.105469 C 327.34375 241.4375 330.746094 245.164062 335.132812 246.347656 C 337.175781 246.902344 339.402344 246.839844 341.15625 245.535156 C 342.691406 244.394531 343.652344 242.671875 344.730469 241.132812 C 345.804688 239.511719 347.261719 238.183594 348.964844 237.257812 C 350.796875 236.359375 352.765625 235.777344 354.789062 235.542969 C 359.335938 234.9375 363.949219 235.050781 368.460938 235.882812 C 373.617188 236.800781 378.574219 238.59375 383.125 241.1875 C 383.40625 241.347656 383.105469 241.753906 382.824219 241.59375 Z M 382.824219 241.59375 "/>
<path style=" stroke:none;fill-rule:nonzero;fill:rgb(100%,100%,100%);fill-opacity:1;" d="M 358.667969 235.433594 C 358.757812 232.117188 361.238281 229.351562 364.523438 228.902344 C 364.84375 228.859375 364.925781 229.359375 364.601562 229.402344 C 361.542969 229.8125 359.238281 232.398438 359.171875 235.488281 C 359.164062 235.8125 358.660156 235.757812 358.667969 235.433594 Z M 358.667969 235.433594 "/>
<path style=" stroke:none;fill-rule:nonzero;fill:rgb(100%,100%,100%);fill-opacity:1;" d="M 345.726562 240.394531 C 347.960938 242.796875 351.019531 244.273438 354.292969 244.519531 C 354.617188 244.542969 354.5625 245.046875 354.238281 245.023438 C 350.835938 244.757812 347.65625 243.21875 345.335938 240.710938 C 345.113281 240.46875 345.507812 240.15625 345.726562 240.394531 Z M 345.726562 240.394531 "/>
<path style=" stroke:none;fill-rule:nonzero;fill:rgb(100%,100%,100%);fill-opacity:1;" d="M 373.246094 237.359375 C 372.949219 238.613281 373.304688 239.9375 374.1875 240.875 C 374.410156 241.109375 374.015625 241.425781 373.792969 241.191406 C 372.824219 240.152344 372.429688 238.695312 372.746094 237.304688 C 372.765625 237.167969 372.886719 237.070312 373.023438 237.082031 C 373.160156 237.097656 373.261719 237.222656 373.246094 237.359375 Z M 373.246094 237.359375 "/>
<path style=" stroke:none;fill-rule:nonzero;fill:rgb(90.196078%,90.196078%,90.196078%);fill-opacity:1;" d="M 116.792969 219.289062 C 123.761719 208.707031 136.226562 201.050781 148.777344 202.699219 C 138.8125 212.207031 132.527344 224.9375 131.03125 238.640625 C 130.476562 243.925781 130.40625 249.863281 126.628906 253.597656 C 124.28125 255.925781 120.859375 256.898438 117.554688 256.933594 C 114.253906 256.964844 111.007812 256.152344 107.804688 255.347656 L 107 255.535156 C 107.535156 242.875 109.828125 229.867188 116.792969 219.289062 Z M 116.792969 219.289062 "/>
<path style=" stroke:none;fill-rule:nonzero;fill:rgb(100%,100%,100%);fill-opacity:1;" d="M 148.777344 202.964844 C 139.058594 206.886719 130.820312 213.773438 125.234375 222.648438 C 124 224.535156 123.066406 226.609375 122.476562 228.789062 C 121.96875 230.929688 122.039062 233.167969 122.6875 235.273438 C 123.253906 237.246094 124.0625 239.199219 124.136719 241.277344 C 124.183594 243.425781 123.3125 245.496094 121.738281 246.964844 C 119.851562 248.820312 117.40625 249.886719 114.980469 250.847656 C 112.285156 251.914062 109.472656 252.980469 107.46875 255.167969 C 107.226562 255.433594 106.828125 255.042969 107.070312 254.777344 C 110.554688 250.964844 116.113281 250.574219 120.148438 247.585938 C 122.03125 246.191406 123.507812 244.222656 123.582031 241.804688 C 123.644531 239.6875 122.816406 237.671875 122.226562 235.679688 C 121.566406 233.636719 121.410156 231.464844 121.78125 229.347656 C 122.261719 227.144531 123.109375 225.039062 124.296875 223.121094 C 126.894531 218.765625 130.160156 214.839844 133.976562 211.5 C 138.308594 207.660156 143.265625 204.589844 148.632812 202.425781 C 148.964844 202.292969 149.109375 202.832031 148.777344 202.964844 Z M 148.777344 202.964844 "/>
<path style=" stroke:none;fill-rule:nonzero;fill:rgb(100%,100%,100%);fill-opacity:1;" d="M 126.867188 219.683594 C 124.058594 217.328125 123.367188 213.28125 125.234375 210.125 C 125.417969 209.816406 125.90625 210.089844 125.722656 210.398438 C 123.976562 213.332031 124.628906 217.105469 127.257812 219.285156 C 127.535156 219.515625 127.140625 219.910156 126.867188 219.683594 Z M 126.867188 219.683594 "/>
<path style=" stroke:none;fill-rule:nonzero;fill:rgb(100%,100%,100%);fill-opacity:1;" d="M 122.269531 234.308594 C 125.886719 234.023438 129.261719 232.382812 131.722656 229.714844 C 131.964844 229.449219 132.363281 229.84375 132.117188 230.105469 C 129.550781 232.878906 126.039062 234.578125 122.273438 234.867188 C 121.917969 234.894531 121.914062 234.335938 122.269531 234.308594 Z M 122.269531 234.308594 "/>
<path style=" stroke:none;fill-rule:nonzero;fill:rgb(100%,100%,100%);fill-opacity:1;" d="M 138.539062 208.363281 C 139.421875 209.484375 140.804688 210.082031 142.226562 209.960938 C 142.582031 209.929688 142.585938 210.488281 142.230469 210.519531 C 140.660156 210.648438 139.132812 209.988281 138.148438 208.761719 C 138.042969 208.652344 138.039062 208.476562 138.144531 208.367188 C 138.253906 208.257812 138.429688 208.257812 138.539062 208.363281 Z M 138.539062 208.363281 "/>
<path style=" stroke:none;fill-rule:nonzero;fill:rgb(90.196078%,90.196078%,90.196078%);fill-opacity:1;" d="M 171.566406 239.039062 C 171.34375 239.066406 171.121094 239.09375 170.894531 239.125 C 167.898438 239.492188 164.9375 240.105469 162.039062 240.957031 C 161.8125 241.019531 161.585938 241.085938 161.363281 241.152344 C 154.402344 243.273438 147.898438 246.671875 142.175781 251.171875 C 139.902344 252.964844 137.765625 254.929688 135.789062 257.046875 C 133.058594 259.96875 130.328125 263.355469 126.894531 265.152344 C 126.539062 265.34375 126.171875 265.515625 125.792969 265.660156 L 107.292969 256.503906 C 107.261719 256.460938 107.230469 256.421875 107.195312 256.378906 L 106.441406 256.050781 C 106.535156 255.933594 106.636719 255.8125 106.730469 255.699219 C 106.785156 255.628906 106.84375 255.5625 106.898438 255.496094 C 106.9375 255.453125 106.972656 255.40625 107.003906 255.367188 C 107.015625 255.351562 107.03125 255.335938 107.039062 255.324219 C 107.070312 255.28125 107.105469 255.246094 107.136719 255.207031 C 107.695312 254.542969 108.257812 253.882812 108.828125 253.222656 C 108.832031 253.21875 108.832031 253.21875 108.835938 253.21875 C 113.199219 248.207031 118.011719 243.515625 123.386719 239.707031 C 123.546875 239.59375 123.710938 239.476562 123.882812 239.363281 C 126.3125 237.660156 128.878906 236.160156 131.554688 234.875 C 133.023438 234.175781 134.527344 233.550781 136.054688 233.007812 C 140.011719 231.601562 144.167969 230.828125 148.363281 230.714844 C 156.730469 230.492188 165.078125 232.953125 171.109375 238.605469 C 171.265625 238.75 171.414062 238.890625 171.566406 239.039062 Z M 171.566406 239.039062 "/>
<path style=" stroke:none;fill-rule:nonzero;fill:rgb(100%,100%,100%);fill-opacity:1;" d="M 171.410156 239.253906 C 161.292969 236.527344 150.574219 237.058594 140.777344 240.777344 C 138.652344 241.539062 136.664062 242.632812 134.878906 244.019531 C 133.1875 245.421875 131.898438 247.253906 131.152344 249.324219 C 130.417969 251.242188 129.886719 253.285156 128.699219 254.992188 C 127.441406 256.734375 125.5 257.863281 123.363281 258.085938 C 120.738281 258.429688 118.144531 257.808594 115.632812 257.113281 C 112.839844 256.339844 109.953125 255.492188 107.035156 256.035156 C 106.683594 256.101562 106.601562 255.546875 106.953125 255.480469 C 112.027344 254.539062 116.703125 257.578125 121.71875 257.625 C 124.0625 257.648438 126.421875 256.960938 127.9375 255.078125 C 129.261719 253.425781 129.808594 251.316406 130.539062 249.371094 C 131.238281 247.339844 132.421875 245.511719 133.988281 244.046875 C 135.695312 242.578125 137.640625 241.410156 139.742188 240.59375 C 144.4375 238.679688 149.402344 237.515625 154.457031 237.144531 C 160.226562 236.691406 166.03125 237.230469 171.617188 238.738281 C 171.960938 238.832031 171.753906 239.347656 171.410156 239.253906 Z M 171.410156 239.253906 "/>
<path style=" stroke:none;fill-rule:nonzero;fill:rgb(100%,100%,100%);fill-opacity:1;" d="M 143.859375 239.394531 C 143.035156 235.820312 144.917969 232.171875 148.304688 230.78125 C 148.636719 230.644531 148.863281 231.15625 148.53125 231.292969 C 145.371094 232.582031 143.625 235.988281 144.414062 239.3125 C 144.496094 239.664062 143.941406 239.742188 143.859375 239.394531 Z M 143.859375 239.394531 "/>
<path style=" stroke:none;fill-rule:nonzero;fill:rgb(100%,100%,100%);fill-opacity:1;" d="M 131.398438 248.304688 C 134.457031 250.253906 138.136719 250.976562 141.707031 250.332031 C 142.058594 250.265625 142.140625 250.820312 141.785156 250.882812 C 138.070312 251.550781 134.242188 250.789062 131.066406 248.75 C 130.761719 248.558594 131.097656 248.109375 131.398438 248.304688 Z M 131.398438 248.304688 "/>
<path style=" stroke:none;fill-rule:nonzero;fill:rgb(100%,100%,100%);fill-opacity:1;" d="M 159.988281 237.394531 C 160.019531 238.820312 160.761719 240.132812 161.96875 240.890625 C 162.273438 241.082031 161.941406 241.527344 161.636719 241.339844 C 160.308594 240.496094 159.484375 239.050781 159.433594 237.476562 C 159.417969 237.324219 159.519531 237.183594 159.671875 237.15625 C 159.824219 237.136719 159.964844 237.242188 159.988281 237.394531 Z M 159.988281 237.394531 "/>
<path style=" stroke:none;fill-rule:nonzero;fill:rgb(100%,71.372549%,71.372549%);fill-opacity:1;" d="M 166.382812 139.957031 C 167.316406 139.023438 167.792969 137.722656 167.679688 136.40625 C 167.566406 135.089844 166.878906 133.890625 165.796875 133.132812 L 173.078125 97.84375 L 165.222656 100.328125 L 159.363281 134.464844 C 158.183594 136.410156 158.644531 138.929688 160.4375 140.332031 C 162.226562 141.730469 164.78125 141.570312 166.382812 139.957031 Z M 166.382812 139.957031 "/>
<path style=" stroke:none;fill-rule:nonzero;fill:rgb(90.196078%,90.196078%,90.196078%);fill-opacity:1;" d="M 183.214844 45.632812 L 178.347656 41.957031 C 178.347656 41.957031 174.054688 41.652344 173.292969 49.402344 C 172.53125 57.15625 167.773438 86.90625 167.773438 86.90625 L 160.324219 121.441406 L 170.632812 123.707031 L 178.609375 86.4375 L 186.59375 60.726562 Z M 183.214844 45.632812 "/>
<path style=" stroke:none;fill-rule:nonzero;fill:rgb(24.705882%,23.921569%,33.72549%);fill-opacity:1;" d="M 179.503906 109.535156 L 156.160156 91.359375 C 155.40625 90.769531 155.269531 89.675781 155.855469 88.917969 L 171.738281 68.464844 C 172.328125 67.707031 173.421875 67.570312 174.179688 68.160156 L 197.523438 86.332031 C 198.28125 86.921875 198.417969 88.015625 197.828125 88.777344 L 181.945312 109.230469 C 181.355469 109.988281 180.265625 110.125 179.503906 109.535156 Z M 179.503906 109.535156 "/>
<path style=" stroke:none;fill-rule:nonzero;fill:rgb(100%,100%,100%);fill-opacity:1;" d="M 179.378906 107.652344 L 158.015625 91.019531 C 157.339844 90.496094 157.21875 89.527344 157.742188 88.851562 L 172.140625 70.3125 C 172.664062 69.636719 173.632812 69.515625 174.308594 70.039062 L 195.671875 86.671875 C 196.34375 87.195312 196.464844 88.167969 195.941406 88.839844 L 181.542969 107.382812 C 181.019531 108.054688 180.050781 108.175781 179.378906 107.652344 Z M 179.378906 107.652344 "/>
<path style=" stroke:none;fill-rule:nonzero;fill:rgb(89.411765%,89.411765%,89.411765%);fill-opacity:1;" d="M 160.816406 90.550781 C 160.648438 90.417969 160.617188 90.175781 160.746094 90.007812 L 168.011719 80.652344 C 168.140625 80.484375 168.382812 80.457031 168.550781 80.585938 C 168.71875 80.71875 168.75 80.960938 168.621094 81.128906 L 161.355469 90.480469 C 161.226562 90.648438 160.984375 90.679688 160.816406 90.550781 Z M 160.816406 90.550781 "/>
<path style=" stroke:none;fill-rule:nonzero;fill:rgb(89.411765%,89.411765%,89.411765%);fill-opacity:1;" d="M 162.019531 91.488281 C 161.851562 91.355469 161.820312 91.113281 161.949219 90.945312 L 169.214844 81.589844 C 169.34375 81.421875 169.585938 81.390625 169.757812 81.523438 C 169.925781 81.65625 169.953125 81.898438 169.824219 82.066406 L 162.558594 91.417969 C 162.429688 91.585938 162.1875 91.617188 162.019531 91.488281 Z M 162.019531 91.488281 "/>
<path style=" stroke:none;fill-rule:nonzero;fill:rgb(89.411765%,89.411765%,89.411765%);fill-opacity:1;" d="M 167.335938 87.125 C 167.167969 86.992188 167.140625 86.75 167.269531 86.582031 L 170.417969 82.527344 C 170.503906 82.417969 170.640625 82.363281 170.777344 82.382812 C 170.914062 82.402344 171.027344 82.492188 171.082031 82.621094 C 171.132812 82.746094 171.113281 82.894531 171.027344 83.003906 L 167.878906 87.058594 C 167.746094 87.226562 167.503906 87.257812 167.335938 87.125 Z M 167.335938 87.125 "/>
<path style=" stroke:none;fill-rule:nonzero;fill:rgb(89.411765%,89.411765%,89.411765%);fill-opacity:1;" d="M 168.960938 95.082031 C 168.792969 94.949219 168.761719 94.707031 168.894531 94.539062 L 180.359375 79.773438 C 180.492188 79.605469 180.734375 79.574219 180.902344 79.707031 C 181.070312 79.835938 181.101562 80.078125 180.96875 80.246094 L 169.503906 95.015625 C 169.371094 95.183594 169.128906 95.210938 168.960938 95.082031 Z M 168.960938 95.082031 "/>
<path style=" stroke:none;fill-rule:nonzero;fill:rgb(89.411765%,89.411765%,89.411765%);fill-opacity:1;" d="M 170.164062 96.019531 C 169.996094 95.886719 169.964844 95.644531 170.097656 95.476562 L 181.5625 80.710938 C 181.695312 80.542969 181.9375 80.511719 182.105469 80.644531 C 182.273438 80.773438 182.304688 81.015625 182.171875 81.183594 L 170.707031 95.953125 C 170.574219 96.121094 170.332031 96.148438 170.164062 96.019531 Z M 170.164062 96.019531 "/>
<path style=" stroke:none;fill-rule:nonzero;fill:rgb(89.411765%,89.411765%,89.411765%);fill-opacity:1;" d="M 172.898438 98.148438 C 172.730469 98.015625 172.699219 97.773438 172.828125 97.605469 L 184.296875 82.839844 C 184.425781 82.667969 184.667969 82.640625 184.835938 82.769531 C 185.007812 82.902344 185.035156 83.144531 184.90625 83.3125 L 173.4375 98.078125 C 173.308594 98.246094 173.066406 98.277344 172.898438 98.148438 Z M 172.898438 98.148438 "/>
<path style=" stroke:none;fill-rule:nonzero;fill:rgb(89.411765%,89.411765%,89.411765%);fill-opacity:1;" d="M 174.101562 99.082031 C 173.933594 98.953125 173.902344 98.710938 174.035156 98.542969 L 185.5 83.773438 C 185.632812 83.605469 185.875 83.578125 186.042969 83.707031 C 186.210938 83.839844 186.242188 84.082031 186.109375 84.25 L 174.644531 99.015625 C 174.511719 99.183594 174.269531 99.214844 174.101562 99.082031 Z M 174.101562 99.082031 "/>
<path style=" stroke:none;fill-rule:nonzero;fill:rgb(89.411765%,89.411765%,89.411765%);fill-opacity:1;" d="M 176.832031 101.210938 C 176.664062 101.082031 176.636719 100.835938 176.765625 100.667969 L 188.234375 85.902344 C 188.363281 85.734375 188.605469 85.703125 188.773438 85.835938 C 188.941406 85.964844 188.972656 86.207031 188.84375 86.378906 L 177.375 101.144531 C 177.246094 101.3125 177.003906 101.34375 176.832031 101.210938 Z M 176.832031 101.210938 "/>
<path style=" stroke:none;fill-rule:nonzero;fill:rgb(89.411765%,89.411765%,89.411765%);fill-opacity:1;" d="M 178.039062 102.148438 C 177.871094 102.015625 177.839844 101.773438 177.96875 101.605469 L 189.4375 86.839844 C 189.566406 86.671875 189.808594 86.640625 189.976562 86.773438 C 190.144531 86.902344 190.175781 87.144531 190.046875 87.316406 L 178.578125 102.082031 C 178.449219 102.25 178.207031 102.28125 178.039062 102.148438 Z M 178.039062 102.148438 "/>
<path style=" stroke:none;fill-rule:nonzero;fill:rgb(100%,100%,100%);fill-opacity:1;" d="M 159.03125 119.140625 C 159.03125 119.226562 158.960938 119.296875 158.871094 119.296875 C 158.785156 119.296875 158.714844 119.226562 158.714844 119.140625 C 158.714844 119.050781 158.785156 118.980469 158.871094 118.980469 C 158.960938 118.980469 159.03125 119.050781 159.03125 119.140625 Z M 159.03125 119.140625 "/>
<path style=" stroke:none;fill-rule:nonzero;fill:rgb(18.431373%,18.039216%,25.490196%);fill-opacity:1;" d="M 181.960938 9.972656 C 181.40625 12.972656 180.492188 15.894531 179.238281 18.675781 C 172.078125 33.847656 192.476562 28.902344 199.765625 28.902344 C 207.738281 28.902344 215.363281 33.097656 214.199219 14.449219 C 213.703125 6.484375 207.738281 0 199.765625 0 C 192.957031 0 183.386719 3.03125 181.960938 9.972656 Z M 181.960938 9.972656 "/>
<path style=" stroke:none;fill-rule:nonzero;fill:rgb(100%,71.372549%,71.372549%);fill-opacity:1;" d="M 207.195312 232.511719 L 200.40625 232.511719 L 197.171875 206.285156 L 207.195312 206.285156 Z M 207.195312 232.511719 "/>
<path style=" stroke:none;fill-rule:nonzero;fill:rgb(18.431373%,18.039216%,25.490196%);fill-opacity:1;" d="M 210.78125 244.296875 L 205.910156 244.296875 L 205.042969 239.691406 L 202.816406 244.296875 L 189.898438 244.296875 C 188.628906 244.296875 187.503906 243.46875 187.125 242.253906 C 186.746094 241.039062 187.203125 239.71875 188.25 238.996094 L 198.5625 231.863281 L 198.5625 227.207031 L 209.414062 227.855469 Z M 210.78125 244.296875 "/>
<path style=" stroke:none;fill-rule:nonzero;fill:rgb(100%,71.372549%,71.372549%);fill-opacity:1;" d="M 247.542969 223.933594 L 242.09375 227.988281 L 223.871094 208.875 L 231.914062 202.886719 Z M 247.542969 223.933594 "/>
<path style=" stroke:none;fill-rule:nonzero;fill:rgb(18.431373%,18.039216%,25.490196%);fill-opacity:1;" d="M 257.441406 231.246094 L 253.53125 234.15625 L 250.089844 230.980469 L 251.046875 236.003906 L 240.683594 243.722656 C 239.664062 244.480469 238.269531 244.488281 237.242188 243.738281 C 236.214844 242.992188 235.792969 241.660156 236.199219 240.453125 L 240.226562 228.566406 L 237.453125 224.832031 L 246.546875 218.871094 Z M 257.441406 231.246094 "/>
<path style=" stroke:none;fill-rule:nonzero;fill:rgb(100%,71.372549%,71.372549%);fill-opacity:1;" d="M 184.953125 111.804688 L 217.191406 106.777344 L 210.78125 87.464844 L 184.953125 87.464844 Z M 184.953125 111.804688 "/>
<path style=" stroke:none;fill-rule:nonzero;fill:rgb(18.431373%,18.039216%,25.490196%);fill-opacity:1;" d="M 215.101562 97.191406 C 215.101562 97.191406 227.988281 108.339844 222.042969 140.113281 L 214.785156 171.25 L 234.558594 205.625 L 224.503906 211.117188 L 200.136719 177.203125 L 188.984375 151.011719 L 183.085938 105.113281 Z M 215.101562 97.191406 "/>
<path style=" stroke:none;fill-rule:nonzero;fill:rgb(18.431373%,18.039216%,25.490196%);fill-opacity:1;" d="M 195.132812 158.476562 L 194.355469 170.496094 L 196.625 206.082031 L 207.886719 209.964844 L 210.023438 173.503906 Z M 195.132812 158.476562 "/>
<path style=" stroke:none;fill-rule:nonzero;fill:rgb(90.196078%,90.196078%,90.196078%);fill-opacity:1;" d="M 191.667969 32.902344 L 204.128906 33.386719 L 209.097656 41.644531 L 220.425781 43.859375 L 213.664062 78.121094 L 214.90625 97.625 L 203.625 97.554688 C 195.492188 97.503906 187.628906 100.464844 181.542969 105.859375 L 181.878906 80.546875 L 177.027344 61.648438 L 178.117188 41.832031 L 187.234375 40.691406 Z M 191.667969 32.902344 "/>
<path style=" stroke:none;fill-rule:nonzero;fill:rgb(100%,71.372549%,71.372549%);fill-opacity:1;" d="M 210.300781 17.15625 C 210.300781 23.640625 205.050781 28.898438 198.574219 28.898438 C 192.09375 28.898438 186.84375 23.640625 186.84375 17.15625 C 186.84375 10.667969 192.09375 5.414062 198.574219 5.414062 C 205.050781 5.414062 210.300781 10.667969 210.300781 17.15625 Z M 210.300781 17.15625 "/>
<path style=" stroke:none;fill-rule:nonzero;fill:rgb(18.431373%,18.039216%,25.490196%);fill-opacity:1;" d="M 190.609375 5.183594 C 194.792969 2.628906 200.039062 2.5625 204.289062 5.003906 C 208.539062 7.449219 211.125 12.015625 211.03125 16.925781 C 205.054688 18.425781 198.777344 19.578125 192.40625 17.285156 L 190.898438 13.59375 L 190.011719 17.285156 C 188.070312 18.082031 186.125 18.753906 184.179688 17.277344 C 184.019531 12.390625 186.46875 7.78125 190.609375 5.183594 Z M 190.609375 5.183594 "/>
<path style=" stroke:none;fill-rule:nonzero;fill:rgb(42.352941%,38.823529%,100%);fill-opacity:1;" d="M 218.257812 121.300781 L 219.839844 135.664062 C 220.066406 136.402344 220.746094 136.902344 221.511719 136.902344 L 228.800781 136.902344 C 229.570312 136.902344 230.25 136.402344 230.476562 135.664062 L 231.785156 124.65625 C 232.820312 125.164062 234.070312 124.945312 234.871094 124.109375 C 235.671875 123.277344 235.84375 122.019531 235.296875 121 C 234.75 119.980469 233.605469 119.433594 232.46875 119.644531 C 232.140625 119.253906 231.652344 119.027344 231.140625 119.03125 L 219.933594 119.03125 C 219.375 119.03125 218.855469 119.292969 218.523438 119.742188 C 218.191406 120.1875 218.09375 120.765625 218.257812 121.300781 Z M 232.011719 123.910156 L 232.816406 121.300781 C 232.90625 120.996094 232.917969 120.675781 232.839844 120.371094 C 232.875 120.371094 232.910156 120.359375 232.941406 120.359375 C 233.992188 120.359375 234.84375 121.210938 234.84375 122.261719 C 234.84375 123.3125 233.992188 124.164062 232.941406 124.164062 C 232.617188 124.160156 232.296875 124.074219 232.011719 123.910156 Z M 232.011719 123.910156 "/>
<path style=" stroke:none;fill-rule:nonzero;fill:rgb(100%,71.372549%,71.372549%);fill-opacity:1;" d="M 229.246094 136.914062 C 228.316406 135.976562 227.847656 134.675781 227.96875 133.359375 C 228.085938 132.042969 228.78125 130.847656 229.867188 130.09375 L 222.765625 94.769531 L 230.609375 97.292969 L 236.292969 131.457031 C 237.460938 133.410156 236.988281 135.925781 235.191406 137.320312 C 233.394531 138.710938 230.839844 138.535156 229.246094 136.914062 Z M 229.246094 136.914062 "/>
<path style=" stroke:none;fill-rule:nonzero;fill:rgb(90.196078%,90.196078%,90.196078%);fill-opacity:1;" d="M 215.5625 47.535156 L 220.425781 43.859375 C 220.425781 43.859375 224.71875 43.554688 225.480469 51.304688 C 226.242188 59.054688 231 88.808594 231 88.808594 L 238.449219 123.339844 L 228.140625 125.605469 L 220.164062 88.339844 L 212.179688 62.628906 Z M 215.5625 47.535156 "/>
<path style=" stroke:none;fill-rule:nonzero;fill:rgb(42.352941%,38.823529%,100%);fill-opacity:1;" d="M 176.316406 76.933594 C 176.316406 78.457031 175.082031 79.691406 173.558594 79.691406 C 172.039062 79.691406 170.804688 78.457031 170.804688 76.933594 C 170.804688 75.410156 172.039062 74.171875 173.558594 74.171875 C 175.082031 74.171875 176.316406 75.410156 176.316406 76.933594 Z M 176.316406 76.933594 "/>
<path style=" stroke:none;fill-rule:nonzero;fill:rgb(100%,71.372549%,71.372549%);fill-opacity:1;" d="M 85.714844 264.511719 L 91.457031 264.511719 L 94.1875 242.339844 L 85.714844 242.339844 Z M 85.714844 264.511719 "/>
<path style=" stroke:none;fill-rule:nonzero;fill:rgb(18.431373%,18.039216%,25.490196%);fill-opacity:1;" d="M 84.253906 262.632812 L 85.867188 262.632812 L 92.175781 260.066406 L 95.558594 262.632812 C 99.539062 262.632812 102.761719 265.863281 102.761719 269.847656 L 102.761719 270.082031 L 84.253906 270.082031 Z M 84.253906 262.632812 "/>
<path style=" stroke:none;fill-rule:nonzero;fill:rgb(100%,71.372549%,71.372549%);fill-opacity:1;" d="M 107.964844 260.886719 L 113.5625 262.15625 L 121.105469 241.128906 L 112.839844 239.261719 Z M 107.964844 260.886719 "/>
<path style=" stroke:none;fill-rule:nonzero;fill:rgb(18.431373%,18.039216%,25.490196%);fill-opacity:1;" d="M 106.949219 258.734375 L 108.523438 259.089844 L 115.242188 257.976562 L 117.976562 261.226562 C 121.859375 262.105469 124.292969 265.96875 123.417969 269.855469 L 123.367188 270.082031 L 105.308594 266 Z M 106.949219 258.734375 "/>
<path style=" stroke:none;fill-rule:nonzero;fill:rgb(18.431373%,18.039216%,25.490196%);fill-opacity:1;" d="M 75.207031 150.464844 L 80.398438 208.699219 C 80.398438 208.699219 78.453125 243.664062 84.730469 255.96875 L 93.832031 255.96875 L 98.339844 205.507812 L 98.90625 171.640625 L 118.421875 200.214844 L 105.992188 255.140625 L 117.195312 256.144531 L 137.363281 196.535156 L 115.203125 140.574219 Z M 75.207031 150.464844 "/>
<path style=" stroke:none;fill-rule:nonzero;fill:rgb(100%,72.156863%,72.156863%);fill-opacity:1;" d="M 94.03125 44.316406 C 94.03125 51.71875 88.039062 57.722656 80.644531 57.722656 C 73.25 57.722656 67.253906 51.71875 67.253906 44.316406 C 67.253906 36.914062 73.25 30.910156 80.644531 30.910156 C 88.039062 30.910156 94.03125 36.914062 94.03125 44.316406 Z M 94.03125 44.316406 "/>
<path style=" stroke:none;fill-rule:nonzero;fill:rgb(24.705882%,23.921569%,33.72549%);fill-opacity:1;" d="M 104.179688 70.496094 L 93.195312 65.777344 L 87.847656 60.097656 L 74.492188 62.253906 L 70.949219 68.339844 L 59.476562 79.019531 L 72.917969 139.875 L 72.507812 153.164062 C 72.507812 153.164062 81.113281 157.042969 118.421875 148.113281 C 118.867188 148.007812 117.929688 147.539062 117.929688 147.539062 Z M 104.179688 70.496094 "/>
<path style=" stroke:none;fill-rule:nonzero;fill:rgb(18.431373%,18.039216%,25.490196%);fill-opacity:1;" d="M 66.722656 51.921875 C 66.628906 51.796875 66.535156 51.667969 66.445312 51.535156 C 66.40625 51.613281 66.378906 51.695312 66.335938 51.769531 Z M 66.722656 51.921875 "/>
<path style=" stroke:none;fill-rule:nonzero;fill:rgb(18.431373%,18.039216%,25.490196%);fill-opacity:1;" d="M 93.960938 34.511719 C 93.066406 32.558594 91.472656 31.015625 89.492188 30.1875 C 87.53125 29.394531 85.335938 29.398438 83.375 30.191406 C 81.605469 29.074219 79.640625 28.183594 77.570312 28.074219 C 75.5 27.964844 73.308594 28.734375 72.03125 30.429688 C 71.746094 30.875 71.421875 31.296875 71.066406 31.6875 C 70.039062 32.636719 68.480469 32.5 67.117188 32.304688 C 67.726562 32.832031 68.339844 33.355469 68.953125 33.878906 C 68.210938 34.074219 67.46875 34.269531 66.730469 34.460938 C 67.59375 34.984375 68.457031 35.511719 69.320312 36.035156 C 66.8125 37.542969 65.671875 40.832031 65.976562 43.820312 C 66.257812 46.648438 67.625 49.238281 69.253906 51.535156 C 69.90625 50.164062 69.765625 48.519531 69.753906 46.96875 C 69.742188 45.332031 70.03125 43.476562 71.339844 42.5625 C 72.222656 41.945312 73.359375 41.917969 74.425781 41.925781 C 79.796875 41.953125 85.160156 42.289062 90.492188 42.929688 C 91.21875 42.960938 91.921875 43.164062 92.550781 43.527344 C 93.730469 44.332031 93.960938 45.992188 94.078125 47.453125 C 94.703125 45.042969 95.007812 42.566406 94.984375 40.078125 C 95.039062 38.171875 94.6875 36.273438 93.960938 34.511719 Z M 93.960938 34.511719 "/>
<path style=" stroke:none;fill-rule:nonzero;fill:rgb(100%,100%,100%);fill-opacity:1;" d="M 119.203125 170.1875 C 119.203125 181.84375 109.765625 191.289062 98.128906 191.289062 C 86.492188 191.289062 77.058594 181.84375 77.058594 170.1875 C 77.058594 158.535156 86.492188 149.089844 98.128906 149.089844 C 109.765625 149.089844 119.203125 158.535156 119.203125 170.1875 Z M 119.203125 170.1875 "/>
<path style=" stroke:none;fill-rule:nonzero;fill:rgb(24.705882%,23.921569%,33.72549%);fill-opacity:1;" d="M 98.128906 148.621094 C 97.046875 148.621094 95.964844 148.703125 94.894531 148.863281 C 94.347656 148.945312 93.8125 149.046875 93.28125 149.175781 C 85.355469 151.003906 79.132812 157.152344 77.203125 165.066406 C 75.273438 172.980469 77.964844 181.308594 84.15625 186.589844 C 84.515625 186.894531 84.882812 187.191406 85.261719 187.472656 C 92.769531 193.074219 103.03125 193.179688 110.648438 187.730469 C 118.269531 182.285156 121.5 172.53125 118.640625 163.601562 C 115.785156 154.675781 107.492188 148.621094 98.128906 148.621094 Z M 98.128906 190.820312 C 93.75 190.824219 89.480469 189.421875 85.953125 186.820312 C 85.570312 186.539062 85.199219 186.246094 84.839844 185.9375 C 78.804688 180.839844 76.210938 172.730469 78.167969 165.070312 C 80.125 157.40625 86.285156 151.542969 94.027344 149.972656 C 94.550781 149.863281 95.078125 149.78125 95.609375 149.714844 C 96.445312 149.609375 97.289062 149.558594 98.128906 149.558594 C 109.507812 149.558594 118.734375 158.796875 118.734375 170.1875 C 118.734375 181.582031 109.507812 190.820312 98.128906 190.820312 Z M 98.128906 190.820312 "/>
<path style=" stroke:none;fill-rule:nonzero;fill:rgb(42.352941%,38.823529%,100%);fill-opacity:1;" d="M 108.464844 165.96875 L 87.792969 165.96875 C 87.035156 165.96875 86.421875 165.355469 86.421875 164.597656 L 86.421875 164.527344 C 86.421875 163.769531 87.035156 163.15625 87.792969 163.15625 L 108.464844 163.15625 C 109.222656 163.15625 109.835938 163.769531 109.835938 164.527344 L 109.835938 164.597656 C 109.835938 165.355469 109.222656 165.96875 108.464844 165.96875 Z M 108.464844 165.96875 "/>
<path style=" stroke:none;fill-rule:nonzero;fill:rgb(42.352941%,38.823529%,100%);fill-opacity:1;" d="M 108.464844 171.597656 L 87.792969 171.597656 C 87.035156 171.597656 86.421875 170.980469 86.421875 170.222656 L 86.421875 170.15625 C 86.421875 169.398438 87.035156 168.78125 87.792969 168.78125 L 108.464844 168.78125 C 109.222656 168.78125 109.835938 169.398438 109.835938 170.15625 L 109.835938 170.222656 C 109.835938 170.980469 109.222656 171.597656 108.464844 171.597656 Z M 108.464844 171.597656 "/>
<path style=" stroke:none;fill-rule:nonzero;fill:rgb(42.352941%,38.823529%,100%);fill-opacity:1;" d="M 108.464844 177.222656 L 87.792969 177.222656 C 87.035156 177.222656 86.421875 176.609375 86.421875 175.847656 L 86.421875 175.78125 C 86.421875 175.023438 87.035156 174.410156 87.792969 174.410156 L 108.464844 174.410156 C 109.222656 174.410156 109.835938 175.023438 109.835938 175.78125 L 109.835938 175.847656 C 109.835938 176.609375 109.222656 177.222656 108.464844 177.222656 Z M 108.464844 177.222656 "/>
<path style=" stroke:none;fill-rule:nonzero;fill:rgb(61.960784%,38.039216%,41.568627%);fill-opacity:1;" d="M 333.878906 263.796875 L 327.859375 263.796875 L 324.996094 240.546875 L 333.882812 240.546875 Z M 333.878906 263.796875 "/>
<path style=" stroke:none;fill-rule:nonzero;fill:rgb(61.960784%,38.039216%,41.568627%);fill-opacity:1;" d="M 305.402344 263.796875 L 299.382812 263.796875 L 296.519531 240.546875 L 305.402344 240.546875 Z M 305.402344 263.796875 "/>
<path style=" stroke:none;fill-rule:nonzero;fill:rgb(18.431373%,18.039216%,25.490196%);fill-opacity:1;" d="M 305.613281 270.082031 L 287.101562 270.082031 L 287.101562 269.847656 C 287.101562 265.863281 290.328125 262.632812 294.308594 262.632812 L 297.6875 260.066406 L 303.996094 262.632812 L 305.613281 262.632812 Z M 305.613281 270.082031 "/>
<path style=" stroke:none;fill-rule:nonzero;fill:rgb(18.431373%,18.039216%,25.490196%);fill-opacity:1;" d="M 334.863281 270.082031 L 316.351562 270.082031 L 316.351562 269.847656 C 316.355469 265.863281 319.578125 262.632812 323.558594 262.632812 L 326.941406 260.066406 L 333.25 262.632812 L 334.863281 262.632812 Z M 334.863281 270.082031 "/>
<path style=" stroke:none;fill-rule:nonzero;fill:rgb(18.431373%,18.039216%,25.490196%);fill-opacity:1;" d="M 299.496094 126.203125 L 290.347656 181.980469 L 292.839844 190.292969 L 289.570312 196.179688 L 294.367188 247.878906 L 292.421875 252.171875 L 297.863281 255.53125 L 308.933594 255.53125 L 309.523438 208.726562 L 312.257812 201.855469 L 312.257812 198.070312 L 317.824219 169.53125 L 318.851562 209.496094 L 320.46875 216.378906 L 319.109375 221.28125 L 320.886719 224.714844 L 325.609375 256.550781 L 338.023438 256.550781 L 337.066406 249.144531 C 339.289062 248.015625 340.46875 245.523438 339.933594 243.085938 L 339.222656 239.839844 L 340.84375 230.242188 L 343.792969 176.6875 L 342.960938 133.476562 L 328.4375 122.355469 Z M 299.496094 126.203125 "/>
<path style=" stroke:none;fill-rule:nonzero;fill:rgb(61.960784%,38.039216%,41.568627%);fill-opacity:1;" d="M 332.003906 43.027344 C 332.003906 49.40625 326.839844 54.578125 320.46875 54.578125 C 314.097656 54.578125 308.933594 49.40625 308.933594 43.027344 C 308.933594 36.648438 314.097656 31.480469 320.46875 31.480469 C 326.839844 31.480469 332.003906 36.648438 332.003906 43.027344 Z M 332.003906 43.027344 "/>
<path style=" stroke:none;fill-rule:nonzero;fill:rgb(61.960784%,38.039216%,41.568627%);fill-opacity:1;" d="M 295.265625 148.339844 C 296.28125 147.285156 296.78125 145.839844 296.628906 144.382812 C 296.476562 142.929688 295.6875 141.617188 294.476562 140.796875 L 298.960938 123.8125 L 290.320312 126.722656 L 287.386719 142.40625 C 286.121094 144.585938 286.683594 147.363281 288.695312 148.878906 C 290.707031 150.390625 293.53125 150.160156 295.265625 148.339844 Z M 295.265625 148.339844 "/>
<path style=" stroke:none;fill-rule:nonzero;fill:rgb(90.196078%,90.196078%,90.196078%);fill-opacity:1;" d="M 299.988281 66.792969 L 298.132812 66.40625 L 296.550781 67.28125 C 296.550781 67.28125 292.132812 73.183594 292.132812 78.589844 C 292.132812 84 286.730469 136.113281 286.730469 136.113281 L 296.550781 140.535156 L 304.40625 99.730469 Z M 299.988281 66.792969 "/>
<path style=" stroke:none;fill-rule:nonzero;fill:rgb(18.431373%,18.039216%,25.490196%);fill-opacity:1;" d="M 330.570312 34.5625 C 330.570312 34.5625 333.589844 28.785156 326.953125 28.261719 C 326.953125 28.261719 321.292969 23.121094 315.523438 27.320312 C 315.523438 27.320312 312.378906 27.320312 310.660156 30.886719 C 310.660156 30.886719 308.183594 29.945312 307.640625 32.460938 C 307.640625 32.460938 305.832031 37.710938 307.640625 42.4375 C 309.453125 47.160156 310.050781 47.6875 310.050781 47.6875 C 310.050781 47.6875 307.078125 37.78125 314.320312 37.253906 C 321.5625 36.730469 329.664062 32.199219 330.269531 37.972656 C 330.871094 43.75 331.78125 45.171875 331.78125 45.171875 C 331.78125 45.171875 337.511719 36.921875 330.570312 34.5625 Z M 330.570312 34.5625 "/>
<path style=" stroke:none;fill-rule:nonzero;fill:rgb(100%,100%,100%);fill-opacity:1;" d="M 372.710938 196.179688 C 371.839844 196.179688 371 195.859375 370.351562 195.277344 L 335.441406 164.164062 C 333.976562 162.855469 333.84375 160.605469 335.148438 159.136719 L 357.511719 133.980469 C 358.820312 132.515625 361.066406 132.382812 362.53125 133.691406 L 397.441406 164.804688 C 398.910156 166.113281 399.039062 168.363281 397.734375 169.832031 L 375.371094 194.984375 C 374.746094 195.695312 373.863281 196.121094 372.921875 196.171875 C 372.851562 196.179688 372.78125 196.179688 372.710938 196.179688 Z M 372.710938 196.179688 "/>
<path style=" stroke:none;fill-rule:nonzero;fill:rgb(24.705882%,23.921569%,33.72549%);fill-opacity:1;" d="M 372.710938 196.410156 C 371.78125 196.410156 370.886719 196.070312 370.199219 195.449219 L 335.289062 164.335938 C 333.730469 162.941406 333.589844 160.550781 334.976562 158.984375 L 357.339844 133.828125 C 358.730469 132.269531 361.121094 132.128906 362.683594 133.519531 L 397.59375 164.632812 C 399.15625 166.027344 399.292969 168.421875 397.90625 169.984375 L 375.542969 195.136719 C 374.875 195.890625 373.9375 196.347656 372.933594 196.402344 C 372.859375 196.40625 372.785156 196.410156 372.710938 196.410156 Z M 360.167969 133.476562 C 359.351562 133.476562 358.570312 133.824219 358.023438 134.4375 L 335.660156 159.59375 C 334.609375 160.78125 334.714844 162.59375 335.894531 163.652344 L 370.804688 194.765625 C 371.988281 195.820312 373.804688 195.714844 374.859375 194.53125 L 397.222656 169.375 C 398.277344 168.191406 398.171875 166.371094 396.984375 165.316406 L 362.078125 134.203125 C 361.550781 133.734375 360.871094 133.476562 360.167969 133.476562 Z M 360.167969 133.476562 "/>
<path style=" stroke:none;fill-rule:nonzero;fill:rgb(42.352941%,38.823529%,100%);fill-opacity:1;" d="M 385.367188 172.355469 C 384.992188 172.359375 384.628906 172.21875 384.347656 171.96875 L 356.945312 147.542969 C 356.53125 147.179688 356.34375 146.621094 356.457031 146.078125 C 356.566406 145.539062 356.957031 145.097656 357.480469 144.925781 C 358.003906 144.753906 358.578125 144.875 358.988281 145.242188 L 386.390625 169.667969 C 386.871094 170.089844 387.035156 170.765625 386.808594 171.363281 C 386.578125 171.960938 386.007812 172.359375 385.367188 172.355469 Z M 385.367188 172.355469 "/>
<path style=" stroke:none;fill-rule:nonzero;fill:rgb(42.352941%,38.823529%,100%);fill-opacity:1;" d="M 380.140625 178.234375 C 379.765625 178.238281 379.402344 178.097656 379.121094 177.847656 L 351.714844 153.421875 C 351.082031 152.855469 351.027344 151.882812 351.589844 151.246094 C 352.15625 150.613281 353.128906 150.554688 353.761719 151.121094 L 381.164062 175.546875 C 381.644531 175.96875 381.808594 176.648438 381.582031 177.246094 C 381.351562 177.84375 380.78125 178.238281 380.140625 178.234375 Z M 380.140625 178.234375 "/>
<path style=" stroke:none;fill-rule:nonzero;fill:rgb(42.352941%,38.823529%,100%);fill-opacity:1;" d="M 374.914062 184.117188 C 374.539062 184.117188 374.171875 183.976562 373.890625 183.726562 L 346.488281 159.300781 C 346.078125 158.9375 345.894531 158.378906 346.003906 157.839844 C 346.117188 157.300781 346.507812 156.859375 347.027344 156.6875 C 347.550781 156.515625 348.125 156.632812 348.535156 157 L 375.9375 181.425781 C 376.414062 181.851562 376.582031 182.527344 376.355469 183.125 C 376.125 183.722656 375.554688 184.117188 374.914062 184.117188 Z M 374.914062 184.117188 "/>
<path style=" stroke:none;fill-rule:nonzero;fill:rgb(61.960784%,38.039216%,41.568627%);fill-opacity:1;" d="M 343.578125 149.339844 C 342.867188 148.0625 342.753906 146.535156 343.277344 145.167969 C 343.796875 143.800781 344.898438 142.734375 346.277344 142.257812 L 346.308594 124.691406 L 353.910156 129.730469 L 352.71875 145.640625 C 353.378906 148.070312 352.121094 150.609375 349.789062 151.554688 C 347.457031 152.5 344.789062 151.546875 343.578125 149.339844 Z M 343.578125 149.339844 "/>
<path style=" stroke:none;fill-rule:nonzero;fill:rgb(90.196078%,90.196078%,90.196078%);fill-opacity:1;" d="M 344.28125 71.605469 L 347.675781 68.328125 L 350.171875 70.128906 C 350.171875 70.128906 352.628906 73.082031 354.589844 81.929688 C 356.554688 90.78125 354.589844 139.453125 354.589844 139.453125 L 343.789062 137.976562 L 345.261719 112.410156 L 340.84375 90.78125 Z M 344.28125 71.605469 "/>
<path style=" stroke:none;fill-rule:nonzero;fill:rgb(24.705882%,23.921569%,33.72549%);fill-opacity:1;" d="M 349.296875 69.125 L 337.851562 63.652344 L 330.082031 56.4375 L 315.914062 56.332031 L 311.34375 62.28125 L 299.277344 66.382812 L 301.289062 108.042969 L 299.917969 111.246094 C 299.917969 111.246094 300.871094 112.109375 301.308594 112.59375 C 301.746094 113.078125 300.707031 117.121094 300.707031 117.121094 L 300.121094 121.523438 L 301.746094 122.6875 L 299.632812 125.1875 L 299.109375 129.125 C 299.109375 129.125 335.996094 119.945312 342.96875 135.15625 C 343.335938 135.957031 342.429688 128.105469 342.429688 128.105469 L 341.523438 122.355469 L 342.421875 117.195312 L 343.792969 115.824219 L 341.492188 113.519531 L 342.96875 102.59375 Z M 349.296875 69.125 "/>
<path style=" stroke:none;fill-rule:nonzero;fill:rgb(100%,72.156863%,72.156863%);fill-opacity:1;" d="M 89.769531 161.480469 C 90.34375 160.019531 90.242188 158.378906 89.492188 157 C 88.742188 155.617188 87.417969 154.640625 85.882812 154.332031 L 83.339844 135.640625 L 75.96875 142.09375 L 79.511719 158.851562 C 79.15625 161.535156 80.859375 164.058594 83.472656 164.726562 C 86.089844 165.398438 88.792969 164.003906 89.769531 161.480469 Z M 89.769531 161.480469 "/>
<path style=" stroke:none;fill-rule:nonzero;fill:rgb(24.705882%,23.921569%,33.72549%);fill-opacity:1;" d="M 60.890625 78.679688 L 58.890625 79.0625 L 57.683594 80.585938 C 57.683594 80.585938 55.730469 88.257812 57.957031 93.621094 C 60.179688 98.980469 76.273438 152.878906 76.273438 152.878906 L 87.832031 153.214844 L 78.828125 109.515625 Z M 60.890625 78.679688 "/>
<path style=" stroke:none;fill-rule:nonzero;fill:rgb(100%,72.156863%,72.156863%);fill-opacity:1;" d="M 106.453125 158.738281 C 105.375 157.597656 104.859375 156.035156 105.039062 154.476562 C 105.222656 152.914062 106.085938 151.515625 107.398438 150.65625 L 102.796875 132.363281 L 112.039062 135.597656 L 114.992188 152.472656 C 116.320312 154.824219 115.679688 157.804688 113.503906 159.402344 C 111.324219 161 108.296875 160.714844 106.453125 158.738281 Z M 106.453125 158.738281 "/>
<path style=" stroke:none;fill-rule:nonzero;fill:rgb(24.705882%,23.921569%,33.72549%);fill-opacity:1;" d="M 102.414062 71.128906 L 104.410156 70.738281 L 106.097656 71.699219 C 106.097656 71.699219 110.769531 78.089844 110.699219 83.894531 C 110.632812 89.699219 115.773438 145.722656 115.773438 145.722656 L 105.171875 150.347656 L 97.253906 106.4375 Z M 102.414062 71.128906 "/>
</g>
</svg>
